<svg width="26" height="41" viewBox="0 0 26 41" fill="none" xmlns="http://www.w3.org/2000/svg">
<path d="M3.67353 5.08476L3.19463 4.94105L3.20032 4.92207L3.20751 4.90359L3.67353 5.08476ZM1.4943 14.2104C1.45271 14.4834 1.19769 14.671 0.924696 14.6294C0.651703 14.5878 0.464113 14.3328 0.505703 14.0598L1.4943 14.2104ZM1.41257 14.7598C1.60907 14.5658 1.92565 14.5678 2.11967 14.7643C2.31368 14.9608 2.31166 15.2774 2.11516 15.4714L1.41257 14.7598ZM1.41438 16.225C1.25986 16.4538 0.949059 16.5141 0.720201 16.3596C0.491344 16.205 0.431087 15.8943 0.585615 15.6654L1.41438 16.225ZM2.02367 15.9801C2.25432 15.8282 2.56439 15.8921 2.71622 16.1228C2.86804 16.3535 2.80413 16.6635 2.57348 16.8154L2.02367 15.9801ZM1.49649 18.4932C1.46381 18.7674 1.21504 18.9632 0.94084 18.9305C0.666637 18.8979 0.470839 18.6491 0.503511 18.3749L1.49649 18.4932ZM1.26764 19.1269C1.30149 18.8529 1.5511 18.6582 1.82516 18.692C2.09922 18.7259 2.29395 18.9755 2.2601 19.2495L1.26764 19.1269ZM3.67353 24.8447L4.08054 24.5543L3.67353 24.8447ZM3.21254 40.2059C3.09884 40.4575 2.80267 40.5693 2.55102 40.4557C2.29937 40.3419 2.18754 40.0458 2.30124 39.7941L3.21254 40.2059ZM13.8329 17.9536C13.5568 17.9536 13.3329 17.7297 13.3329 17.4536C13.3329 17.1774 13.5568 16.9536 13.8329 16.9536V17.9536ZM17.6523 16.6994L17.7124 17.1958L17.6523 16.6994ZM23.9924 16.4731V16.9732L23.9856 16.9731L23.9924 16.4731ZM23.9924 14.1351L24.1673 13.6667L24.1947 13.677L24.2207 13.6903L23.9924 14.1351ZM20.7841 13.0038L20.5628 13.4522L20.7841 13.0038ZM16.9648 9.23285L16.5217 9.46448L16.9648 9.23285ZM13.2982 9.08201L12.9883 8.68965L13.2982 9.08201ZM11.9997 11.1938L11.5021 11.1434L11.5036 11.131L11.9997 11.1938ZM9.78446 15.6435H10.2845V15.6682L10.282 15.6927L9.78446 15.6435ZM9.77631 16.5486L10.2749 16.5111L9.77631 16.5486ZM12.3052 17.029C12.5814 17.029 12.8052 17.2529 12.8052 17.529C12.8052 17.8051 12.5814 18.029 12.3052 18.029V17.029ZM20.7841 20.2441L21.102 20.63L20.7841 20.2441ZM20.8425 39.5909C21.0684 39.7497 21.1228 40.0616 20.964 40.2875C20.8052 40.5134 20.4934 40.5679 20.2674 40.4091L20.8425 39.5909ZM14.2601 18.9206L14.1776 19.4138L14.2601 18.9206ZM18.1185 18.7723L17.9372 18.3063L18.1185 18.7723ZM1.81238 12.5209L2.22511 12.8031L1.81238 12.5209ZM17.9575 5.3393C17.6592 4.24287 16.8239 3.32406 15.6335 2.65247C14.4445 1.98159 12.9381 1.58094 11.3894 1.51101C8.25726 1.36957 5.1876 2.57007 4.13955 5.26594L3.20751 4.90359C4.48161 1.62623 8.10771 0.361801 11.4345 0.512026C13.1153 0.587922 14.7792 1.02225 16.1249 1.78153C17.4694 2.54009 18.5333 3.64662 18.9225 5.07674L17.9575 5.3393ZM4.15243 5.22848C3.84041 6.26822 3.32536 8.38881 3.22595 10.122L2.22759 10.0647C2.33339 8.22018 2.87235 6.01496 3.19463 4.94105L4.15243 5.22848ZM2.22511 12.8031C2.03278 13.0844 1.85367 13.386 1.71842 13.6527C1.57494 13.9355 1.5067 14.129 1.4943 14.2104L0.505703 14.0598C0.544008 13.8084 0.678366 13.4925 0.826605 13.2003C0.98307 12.8918 1.1848 12.5528 1.39965 12.2386L2.22511 12.8031ZM2.11516 15.4714C2.01668 15.5686 1.86068 15.7263 1.7155 15.8806C1.55949 16.0464 1.44884 16.174 1.41438 16.225L0.585615 15.6654C0.673376 15.5354 0.842815 15.3488 0.987255 15.1953C1.14253 15.0303 1.30735 14.8637 1.41257 14.7598L2.11516 15.4714ZM2.57348 16.8154C2.43104 16.9091 2.1793 17.1218 1.95214 17.4252C1.72627 17.7269 1.54431 18.0919 1.49649 18.4932L0.503511 18.3749C0.577908 17.7505 0.854265 17.223 1.15164 16.8258C1.44774 16.4304 1.78417 16.1377 2.02367 15.9801L2.57348 16.8154ZM2.2601 19.2495C2.2077 19.6737 2.26965 20.4562 2.55245 21.4241C2.83215 22.3813 3.31826 23.486 4.08054 24.5543L3.26652 25.1351C2.43296 23.9669 1.90059 22.7587 1.59258 21.7045C1.28768 20.661 1.19272 19.7335 1.26764 19.1269L2.2601 19.2495ZM4.08054 24.5543C4.55242 25.2156 4.8618 26.2081 5.04214 27.3502C5.22465 28.5061 5.28321 29.8702 5.21516 31.319C5.07925 34.2127 4.43551 37.4991 3.21254 40.2059L2.30124 39.7941C3.46087 37.2275 4.08482 34.0706 4.21626 31.2721C4.28188 29.8749 4.22404 28.5807 4.05438 27.5062C3.88255 26.418 3.604 25.6081 3.26652 25.1351L4.08054 24.5543ZM13.8329 16.9536C14.3827 16.9536 15.1145 16.8009 15.8332 16.6219C16.1942 16.5319 16.5156 16.445 16.8223 16.367C17.1104 16.2937 17.3868 16.2279 17.5922 16.203L17.7124 17.1958C17.5813 17.2116 17.3667 17.2604 17.0688 17.3362C16.7896 17.4072 16.4301 17.5037 16.0749 17.5922C15.3614 17.7699 14.52 17.9536 13.8329 17.9536V16.9536ZM17.5922 16.203C18.2761 16.1202 22.1286 15.9479 23.9991 15.9732L23.9856 16.9731C22.1386 16.9481 18.335 17.1204 17.7124 17.1958L17.5922 16.203ZM23.8174 14.6035C23.3548 14.4307 22.63 14.1846 21.9759 13.9613C21.6512 13.8504 21.3445 13.7453 21.1015 13.6594C20.8739 13.5789 20.6642 13.5022 20.5628 13.4522L21.0055 12.5555C21.0053 12.5554 21.0083 12.5569 21.0157 12.5601C21.0228 12.5632 21.0322 12.5672 21.0443 12.5722C21.0686 12.5821 21.1 12.5944 21.1388 12.6091C21.2163 12.6385 21.3164 12.6747 21.435 12.7166C21.6719 12.8005 21.9735 12.9038 22.299 13.0149C22.9451 13.2355 23.6878 13.4876 24.1673 13.6667L23.8174 14.6035ZM20.5628 13.4522C20.0642 13.206 17.8152 11.939 16.5217 9.46448L17.4079 9.00122C18.5587 11.2027 20.5874 12.3491 21.0055 12.5555L20.5628 13.4522ZM16.5217 9.46448C16.3419 9.12062 15.8971 8.92592 15.2342 8.95224C14.5851 8.97801 13.9345 9.21664 13.6082 9.47438L12.9883 8.68965C13.5138 8.27462 14.381 7.98532 15.1945 7.95302C15.9943 7.92127 16.9569 8.13837 17.4079 9.00122L16.5217 9.46448ZM13.6082 9.47438C13.4498 9.59947 13.1892 9.85139 12.957 10.1799C12.7237 10.51 12.5429 10.8837 12.4957 11.2566L11.5036 11.131C11.5786 10.5384 11.8524 10.0101 12.1404 9.60267C12.4296 9.19352 12.7571 8.87226 12.9883 8.68965L13.6082 9.47438ZM12.4971 11.2441C12.4698 11.5136 12.4106 11.9073 12.3374 12.2567C12.301 12.4309 12.2589 12.6046 12.2126 12.7506C12.1896 12.8232 12.1627 12.8982 12.1312 12.9668C12.1047 13.0244 12.0546 13.1243 11.969 13.2088L11.2664 12.4972C11.2198 12.5432 11.2093 12.5781 11.2224 12.5495C11.2305 12.5319 11.2432 12.4993 11.2593 12.4485C11.2913 12.3476 11.3255 12.2103 11.3586 12.0518C11.4248 11.7357 11.4786 11.3767 11.5022 11.1434L12.4971 11.2441ZM11.969 13.2088C11.8707 13.3058 11.4282 13.7783 11.0133 14.3244C10.8062 14.5971 10.615 14.8764 10.4778 15.1284C10.3309 15.3983 10.2845 15.5686 10.2845 15.6435H9.28446C9.28446 15.3036 9.43856 14.946 9.59954 14.6503C9.77032 14.3365 9.99446 14.0125 10.217 13.7196C10.6615 13.1344 11.1356 12.6264 11.2664 12.4972L11.969 13.2088ZM11.3886 18.2357C12.343 18.2357 13.4174 18.2727 14.3426 18.4275L14.1776 19.4138C13.336 19.273 12.3283 19.2357 11.3886 19.2357V18.2357ZM17.9372 18.3063C18.794 17.9728 19.7719 17.7078 20.555 17.7078V18.7078C19.9549 18.7078 19.113 18.9217 18.2999 19.2382L17.9372 18.3063ZM23.9924 15.9731C24.1218 15.9731 24.2191 15.9406 24.2896 15.897L24.8153 16.7476C24.5774 16.8947 24.2961 16.9731 23.9924 16.9731V15.9731ZM24.2896 15.897C24.4347 15.8073 24.5297 15.6272 24.4917 15.3944C24.4546 15.1669 24.2739 14.8417 23.764 14.5799L24.2207 13.6903C24.9498 14.0646 25.38 14.6285 25.4787 15.2334C25.5765 15.8329 25.3321 16.4282 24.8153 16.7476L24.2896 15.897ZM23.3813 17.7078C23.456 17.7078 23.6668 17.6245 23.8608 17.3432C24.0395 17.0841 24.1318 16.7506 24.0633 16.4255L25.0417 16.2191C25.1768 16.8594 24.9891 17.4686 24.684 17.9109C24.3943 18.331 23.9177 18.7078 23.3813 18.7078V17.7078ZM10.282 15.6927C10.2596 15.9193 10.2521 16.2075 10.2749 16.5111L9.27771 16.586C9.25041 16.2227 9.259 15.8765 9.28688 15.5943L10.282 15.6927ZM10.2749 16.5111C10.3105 16.9846 10.4161 17.4434 10.6093 17.7681C10.7874 18.0674 11.023 18.2357 11.3886 18.2357V19.2357C10.6034 19.2357 10.0712 18.8193 9.74994 18.2795C9.44379 17.765 9.31861 17.1302 9.27771 16.586L10.2749 16.5111ZM10.2763 16.5444C10.2756 16.457 10.2326 16.5651 10.5224 16.721C10.8026 16.8717 11.3426 17.029 12.3052 17.029V18.029C11.2512 18.029 10.5281 17.8595 10.0487 17.6017C9.57893 17.349 9.27977 16.9669 9.27632 16.5527L10.2763 16.5444ZM20.555 17.7078H21.548V18.7078H20.555V17.7078ZM21.548 17.7078H23.3813V18.7078H21.548V17.7078ZM22.048 18.2078C22.048 18.526 21.9855 18.9728 21.8488 19.4051C21.7153 19.8267 21.4868 20.3131 21.102 20.63L20.4662 19.8582C20.6308 19.7226 20.7842 19.4548 20.8953 19.1034C21.0032 18.7626 21.048 18.4175 21.048 18.2078H22.048ZM21.102 20.63C20.4133 21.1974 18.4284 22.9345 18.1488 25.281L17.1558 25.1626C17.4873 22.3806 19.787 20.4178 20.4662 19.8582L21.102 20.63ZM18.1488 25.281C18.0019 26.5138 17.974 29.6386 18.3585 32.7186C18.5505 34.256 18.8426 35.76 19.2643 36.9996C19.6927 38.2588 20.226 39.1576 20.8425 39.5909L20.2674 40.4091C19.3817 39.7865 18.7629 38.6306 18.3176 37.3216C17.8656 35.993 17.5626 34.4152 17.3662 32.8425C16.9742 29.7025 16.9971 26.4941 17.1558 25.1626L18.1488 25.281ZM14.3426 18.4275C15.4818 18.6181 16.9776 18.6798 17.9372 18.3063L18.2999 19.2382C17.075 19.715 15.3503 19.61 14.1776 19.4138L14.3426 18.4275ZM3.22595 10.122C3.1708 11.0834 2.7327 12.0608 2.22511 12.8031L1.39965 12.2386C1.84355 11.5895 2.18621 10.7861 2.22759 10.0647L3.22595 10.122Z" fill="#454545"/>
<path d="M14.7108 11.7217C14.9456 11.5826 14.9248 11.2268 14.8563 10.9554C14.8241 10.8276 14.6949 10.7564 14.5649 10.7778C14.4287 10.8002 14.3403 10.9181 14.3315 11.0557C14.3276 11.1158 14.3169 11.1684 14.2913 11.1937C14.2786 11.2062 14.2674 11.2211 14.2573 11.238C14.0708 11.5518 14.3967 11.9077 14.7108 11.7217Z" fill="#454545" stroke="#454545"/>
<path fill-rule="evenodd" clip-rule="evenodd" d="M17.4229 9.83646C15.5133 3.9537 23.0755 2.4453 23.3047 9.83646C23.3047 13.4566 19.134 13.5773 17.4229 9.83646ZM11.9995 10.5907C11.9995 2.89787 4.74275 4.93418 5.583 10.5907C6.32972 15.6175 11.9995 15.4175 11.9995 10.5907ZM22.2277 11.9704C22.4197 11.8171 22.5944 11.6028 22.7192 11.4236C22.8093 11.2941 22.7872 11.1233 22.6769 11.0101C21.0852 9.37673 18.0459 6.44859 17.7431 6.44859C17.3297 6.44859 17.2892 7.20317 17.2852 7.72214C17.2845 7.82369 17.3284 7.92041 17.4047 7.98848L21.8365 11.9407C21.9476 12.0398 22.1113 12.0634 22.2277 11.9704ZM11.849 11.0238C11.8101 11.5063 11.6811 12.1563 11.4795 12.1059C11.1952 12.035 8.39887 9.46344 6.71889 7.85036C6.50274 7.64282 6.44177 7.32305 6.62149 7.08403C6.87341 6.74898 7.21937 6.41496 7.43098 6.37317C7.72346 6.31542 10.2324 8.97209 11.6748 10.5445C11.7955 10.6761 11.8633 10.8467 11.849 11.0238Z" fill="#454545"/>
<path fill-rule="evenodd" clip-rule="evenodd" d="M17.3402 6.23309C16.8695 7.13763 16.759 8.3858 17.2476 9.8911L17.2508 9.90085L17.2551 9.91019C18.132 11.8275 19.6585 12.7923 21.0055 12.7762C21.6805 12.7681 22.3053 12.5118 22.7598 12.0092C23.2135 11.5074 23.4844 10.7752 23.4844 9.8363V9.83356L23.4843 9.83081C23.4261 7.95416 22.9017 6.61861 22.1554 5.77297C21.4077 4.92575 20.4431 4.57879 19.5391 4.68022C18.6362 4.78152 17.811 5.32851 17.3402 6.23309ZM23.1207 9.83904C23.0639 8.0216 22.5573 6.7749 21.8812 6.00883C21.2062 5.24394 20.3567 4.94983 19.5801 5.03696C18.8449 5.11944 18.1598 5.54514 17.7346 6.26896C17.7367 6.26893 17.7389 6.26892 17.741 6.26892C17.7832 6.26892 17.8197 6.28063 17.8427 6.28939C17.8684 6.29918 17.8939 6.31189 17.9181 6.3253C17.9664 6.35216 18.0219 6.3891 18.0821 6.43259C18.203 6.52004 18.3571 6.64442 18.5346 6.79553C18.8903 7.0984 19.3508 7.51779 19.8499 7.98662C20.8485 8.92465 22.0081 10.0669 22.8058 10.8855C22.8542 10.9352 22.8919 10.9933 22.9173 11.0559C23.0463 10.717 23.1205 10.3121 23.1207 9.83904ZM21.9382 12.1934C21.6562 12.3379 21.3382 12.4131 21.0011 12.4172C19.837 12.4311 18.4254 11.5889 17.5908 9.77174C17.3978 9.17435 17.306 8.62719 17.2949 8.13424L21.7125 12.0738C21.7752 12.1297 21.8537 12.1721 21.9382 12.1934ZM11.8145 10.4316C11.8121 10.429 11.8098 10.4264 11.8074 10.4238C11.0856 9.63695 10.096 8.57779 9.24963 7.72195C8.8268 7.29441 8.43743 6.9153 8.13411 6.64585C7.98299 6.5116 7.84945 6.40118 7.74177 6.32515C7.68838 6.28746 7.63626 6.25457 7.58823 6.23156C7.56415 6.22003 7.53682 6.20888 7.50778 6.20154C7.48034 6.1946 7.43926 6.18789 7.39319 6.19699C7.39039 6.19754 7.38759 6.19812 7.38479 6.19873C7.73722 5.96756 8.11841 5.81904 8.50113 5.76204C9.29169 5.64431 10.1091 5.90941 10.7361 6.66357C11.3497 7.4016 11.7901 8.6209 11.8145 10.4316ZM6.34062 7.28436C6.29931 7.5373 6.40231 7.79868 6.59 7.9789C7.43118 8.78658 8.55161 9.83399 9.49771 10.6887C9.9706 11.1159 10.4011 11.4961 10.7319 11.7744C10.8971 11.9133 11.0391 12.0284 11.1501 12.1116C11.2053 12.1531 11.2551 12.1883 11.2973 12.2151C11.3331 12.2378 11.3831 12.2674 11.4328 12.2798C11.4638 12.2876 11.4929 12.2899 11.52 12.288C11.3756 12.6535 11.1848 12.9627 10.9624 13.2162C10.4531 13.7965 9.7699 14.0945 9.06608 14.1061C7.6679 14.1293 6.1242 13.011 5.76077 10.5645C5.56155 9.22333 5.82968 8.10556 6.34062 7.28436ZM8.4469 5.40703C6.61659 5.67961 4.9698 7.71394 5.40098 10.6166C5.78427 13.1968 7.4488 14.492 9.07218 14.4651C9.87914 14.4518 10.6601 14.1089 11.2372 13.4513C11.8141 12.7939 12.1792 11.8321 12.1792 10.5905C12.1792 8.64266 11.7202 7.28139 11.0171 6.43578C10.3098 5.58491 9.36549 5.27022 8.4469 5.40703ZM8.98946 7.97279C9.83124 8.82395 10.8173 9.87933 11.5379 10.6649C11.6294 10.7646 11.6754 10.8877 11.6656 11.0094C11.6467 11.244 11.6061 11.5144 11.5482 11.7154C11.5241 11.7992 11.4996 11.8616 11.4775 11.9024C11.449 11.8836 11.4132 11.8581 11.3701 11.8258C11.2671 11.7485 11.131 11.6384 10.9678 11.5011C10.6418 11.2269 10.2149 10.85 9.74319 10.4238C8.80006 9.5718 7.68232 8.5269 6.84352 7.72151C6.67772 7.56231 6.65152 7.34226 6.76535 7.19088C6.88555 7.03101 7.02742 6.87258 7.16202 6.75085C7.22933 6.68998 7.29228 6.64061 7.34759 6.60513C7.38492 6.58117 7.41442 6.5664 7.43612 6.55787C7.45763 6.56888 7.48872 6.58787 7.53026 6.6172C7.62141 6.68156 7.74313 6.78149 7.89089 6.91275C8.18534 7.17432 8.56819 7.54682 8.98946 7.97279ZM19.5992 8.24673C20.5939 9.18111 21.7497 10.3196 22.5437 11.1344C22.6 11.1922 22.6038 11.2692 22.5672 11.3217C22.4471 11.4943 22.284 11.6928 22.1112 11.8307C22.0809 11.8549 22.0181 11.8625 21.9563 11.8074L17.5244 7.85511C17.4859 7.82072 17.4646 7.77266 17.4649 7.72334C17.4669 7.46349 17.4784 7.16403 17.5352 6.93293C17.5637 6.81683 17.6 6.73447 17.6392 6.68453C17.6676 6.64839 17.6934 6.63327 17.7226 6.62917C17.727 6.63134 17.7326 6.63426 17.7396 6.63813C17.7699 6.65496 17.8122 6.68253 17.8673 6.7223C17.9767 6.80136 18.1222 6.9185 18.2971 7.06743C18.6461 7.36463 19.1017 7.77935 19.5992 8.24673Z" fill="#454545"/>
</svg>
