<svg width="73" height="50" viewBox="0 0 73 50" fill="none" xmlns="http://www.w3.org/2000/svg">
<mask id="path-1-inside-1_450_60169" fill="white">
<path fill-rule="evenodd" clip-rule="evenodd" d="M53.0895 16.0766C53.0512 16.0352 53.0127 15.994 52.974 15.953C52.9913 15.6626 53 15.3698 53 15.0751C53 7.01861 46.4689 0.487549 38.4125 0.487549C31.0727 0.487549 24.9989 5.90836 23.9765 12.9649C21.46 10.9013 18.241 9.66284 14.7328 9.66284C6.67632 9.66284 0.145264 16.1939 0.145264 24.2504C0.145264 32.3068 6.67632 38.8379 14.7328 38.8379C16.6426 38.8379 18.4668 38.4709 20.1385 37.8035C23.2565 44.7918 30.2655 49.6626 38.4121 49.6626C44.2127 49.6626 49.4365 47.1932 53.0896 43.2484C54.7387 43.895 56.5341 44.25 58.4125 44.25C66.4689 44.25 73 37.7189 73 29.6625C73 21.606 66.4689 15.075 58.4125 15.075C56.5341 15.075 54.7386 15.43 53.0895 16.0766Z"/>
</mask>
<path fill-rule="evenodd" clip-rule="evenodd" d="M53.0895 16.0766C53.0512 16.0352 53.0127 15.994 52.974 15.953C52.9913 15.6626 53 15.3698 53 15.0751C53 7.01861 46.4689 0.487549 38.4125 0.487549C31.0727 0.487549 24.9989 5.90836 23.9765 12.9649C21.46 10.9013 18.241 9.66284 14.7328 9.66284C6.67632 9.66284 0.145264 16.1939 0.145264 24.2504C0.145264 32.3068 6.67632 38.8379 14.7328 38.8379C16.6426 38.8379 18.4668 38.4709 20.1385 37.8035C23.2565 44.7918 30.2655 49.6626 38.4121 49.6626C44.2127 49.6626 49.4365 47.1932 53.0896 43.2484C54.7387 43.895 56.5341 44.25 58.4125 44.25C66.4689 44.25 73 37.7189 73 29.6625C73 21.606 66.4689 15.075 58.4125 15.075C56.5341 15.075 54.7386 15.43 53.0895 16.0766Z" fill="white"/>
<path d="M52.974 15.953L51.9758 15.8937L51.9502 16.3245L52.2461 16.6386L52.974 15.953ZM53.0895 16.0766L52.3558 16.7561L52.8193 17.2567L53.4545 17.0076L53.0895 16.0766ZM23.9765 12.9649L23.3424 13.7381L24.7121 14.8613L24.9661 13.1083L23.9765 12.9649ZM20.1385 37.8035L21.0517 37.396L20.6602 36.5185L19.7677 36.8748L20.1385 37.8035ZM53.0896 43.2484L53.4547 42.3174L52.8195 42.0684L52.3559 42.5689L53.0896 43.2484ZM52.2461 16.6386C52.2828 16.6776 52.3194 16.7168 52.3558 16.7561L53.8232 15.3972C53.783 15.3537 53.7425 15.3105 53.702 15.2674L52.2461 16.6386ZM52 15.0751C52 15.3501 51.9918 15.623 51.9758 15.8937L53.9723 16.0123C53.9907 15.7021 54 15.3896 54 15.0751H52ZM38.4125 1.48755C45.9167 1.48755 52 7.57089 52 15.0751H54C54 6.46632 47.0212 -0.512451 38.4125 -0.512451V1.48755ZM24.9661 13.1083C25.9184 6.53642 31.5767 1.48755 38.4125 1.48755V-0.512451C30.5686 -0.512451 24.0795 5.2803 22.9868 12.8214L24.9661 13.1083ZM14.7328 10.6628C18.0015 10.6628 20.9982 11.8158 23.3424 13.7381L24.6106 12.1916C21.9219 9.98681 18.4806 8.66284 14.7328 8.66284V10.6628ZM1.14526 24.2504C1.14526 16.7462 7.22861 10.6628 14.7328 10.6628V8.66284C6.12404 8.66284 -0.854736 15.6416 -0.854736 24.2504H1.14526ZM14.7328 37.8379C7.22861 37.8379 1.14526 31.7545 1.14526 24.2504H-0.854736C-0.854736 32.8591 6.12404 39.8379 14.7328 39.8379V37.8379ZM19.7677 36.8748C18.212 37.4958 16.5136 37.8379 14.7328 37.8379V39.8379C16.7717 39.8379 18.7216 39.4459 20.5093 38.7322L19.7677 36.8748ZM38.4121 48.6626C30.6744 48.6626 24.0148 44.0371 21.0517 37.396L19.2253 38.211C22.4982 45.5465 29.8566 50.6626 38.4121 50.6626V48.6626ZM52.3559 42.5689C48.8841 46.318 43.9227 48.6626 38.4121 48.6626V50.6626C44.5027 50.6626 49.9889 48.0685 53.8233 43.9279L52.3559 42.5689ZM58.4125 43.25C56.6611 43.25 54.9893 42.9191 53.4547 42.3174L52.7246 44.1794C54.4881 44.8708 56.4072 45.25 58.4125 45.25V43.25ZM72 29.6625C72 37.1667 65.9167 43.25 58.4125 43.25V45.25C67.0212 45.25 74 38.2712 74 29.6625H72ZM58.4125 16.075C65.9167 16.075 72 22.1583 72 29.6625H74C74 21.0537 67.0212 14.075 58.4125 14.075V16.075ZM53.4545 17.0076C54.9892 16.4058 56.661 16.075 58.4125 16.075V14.075C56.4071 14.075 54.488 14.4541 52.7244 15.1456L53.4545 17.0076Z" fill="black" mask="url(#path-1-inside-1_450_60169)"/>
</svg>
