<svg width="74" height="54" viewBox="0 0 74 54" fill="none" xmlns="http://www.w3.org/2000/svg">
<mask id="path-1-inside-1_450_60174" fill="white">
<path fill-rule="evenodd" clip-rule="evenodd" d="M68.4648 14.8657C68.4648 15.9538 68.3439 17.0137 68.1147 18.0326C71.4028 19.8055 73.6372 23.2811 73.6372 27.2786C73.6372 33.0761 68.9374 37.7759 63.1399 37.7759C62.8912 37.7759 62.6445 37.7672 62.4002 37.7502C60.21 45.0949 53.4042 50.4497 45.3477 50.4497C41.9694 50.4497 38.811 49.5082 36.1207 47.8732C34.2771 49.478 31.8679 50.4497 29.2317 50.4497C25.8909 50.4497 22.9146 48.8891 20.9921 46.4571C19.6081 50.6368 15.6685 53.6523 11.0247 53.6523C5.22715 53.6523 0.527344 48.9525 0.527344 43.155C0.527344 37.3575 5.22715 32.6577 11.0247 32.6577C11.218 32.6577 11.4101 32.6629 11.6009 32.6733C11.2274 31.5957 11.0244 30.4384 11.0244 29.2336C11.0244 23.4361 15.7242 18.7363 21.5217 18.7363C21.7302 18.7363 21.9373 18.7424 22.1428 18.7544C21.7396 17.5312 21.5215 16.2239 21.5215 14.8657C21.5215 8.01016 27.079 2.45264 33.9346 2.45264C37.3647 2.45264 40.47 3.84397 42.7167 6.09307C45.3442 2.68965 49.4644 0.497559 54.0967 0.497559C62.032 0.497559 68.4648 6.9304 68.4648 14.8657Z"/>
</mask>
<path fill-rule="evenodd" clip-rule="evenodd" d="M68.4648 14.8657C68.4648 15.9538 68.3439 17.0137 68.1147 18.0326C71.4028 19.8055 73.6372 23.2811 73.6372 27.2786C73.6372 33.0761 68.9374 37.7759 63.1399 37.7759C62.8912 37.7759 62.6445 37.7672 62.4002 37.7502C60.21 45.0949 53.4042 50.4497 45.3477 50.4497C41.9694 50.4497 38.811 49.5082 36.1207 47.8732C34.2771 49.478 31.8679 50.4497 29.2317 50.4497C25.8909 50.4497 22.9146 48.8891 20.9921 46.4571C19.6081 50.6368 15.6685 53.6523 11.0247 53.6523C5.22715 53.6523 0.527344 48.9525 0.527344 43.155C0.527344 37.3575 5.22715 32.6577 11.0247 32.6577C11.218 32.6577 11.4101 32.6629 11.6009 32.6733C11.2274 31.5957 11.0244 30.4384 11.0244 29.2336C11.0244 23.4361 15.7242 18.7363 21.5217 18.7363C21.7302 18.7363 21.9373 18.7424 22.1428 18.7544C21.7396 17.5312 21.5215 16.2239 21.5215 14.8657C21.5215 8.01016 27.079 2.45264 33.9346 2.45264C37.3647 2.45264 40.47 3.84397 42.7167 6.09307C45.3442 2.68965 49.4644 0.497559 54.0967 0.497559C62.032 0.497559 68.4648 6.9304 68.4648 14.8657Z" fill="white"/>
<path d="M68.1147 18.0326L67.1391 17.8131L66.9727 18.5529L67.6401 18.9128L68.1147 18.0326ZM62.4002 37.7502L62.4696 36.7526L61.6707 36.697L61.4419 37.4645L62.4002 37.7502ZM36.1207 47.8732L36.64 47.0186L36.0154 46.639L35.4641 47.1189L36.1207 47.8732ZM20.9921 46.4571L21.7766 45.837L20.626 44.3815L20.0428 46.1428L20.9921 46.4571ZM11.6009 32.6733L11.5469 33.6718L13.0333 33.7522L12.5457 32.3457L11.6009 32.6733ZM22.1428 18.7544L22.0845 19.7527L23.553 19.8384L23.0925 18.4414L22.1428 18.7544ZM42.7167 6.09307L42.0092 6.7998L42.8131 7.60457L43.5082 6.70416L42.7167 6.09307ZM69.0903 18.2521C69.3356 17.1616 69.4648 16.0282 69.4648 14.8657H67.4648C67.4648 15.8795 67.3522 16.8658 67.1391 17.8131L69.0903 18.2521ZM74.6372 27.2786C74.6372 22.8989 72.188 19.0928 68.5893 17.1524L67.6401 18.9128C70.6175 20.5182 72.6372 23.6633 72.6372 27.2786H74.6372ZM63.1399 38.7759C69.4897 38.7759 74.6372 33.6284 74.6372 27.2786H72.6372C72.6372 32.5238 68.3851 36.7759 63.1399 36.7759V38.7759ZM62.3307 38.7478C62.5982 38.7664 62.868 38.7759 63.1399 38.7759V36.7759C62.9144 36.7759 62.6909 36.768 62.4696 36.7526L62.3307 38.7478ZM45.3477 51.4497C53.8585 51.4497 61.0454 45.7927 63.3585 38.036L61.4419 37.4645C59.3746 44.397 52.9499 49.4497 45.3477 49.4497V51.4497ZM35.6013 48.7277C38.4438 50.4552 41.7811 51.4497 45.3477 51.4497V49.4497C42.1577 49.4497 39.1783 48.5612 36.64 47.0186L35.6013 48.7277ZM29.2317 51.4497C32.1183 51.4497 34.7586 50.3846 36.7772 48.6274L35.4641 47.1189C33.7956 48.5713 31.6175 49.4497 29.2317 49.4497V51.4497ZM20.2076 47.0773C22.3116 49.7388 25.5722 51.4497 29.2317 51.4497V49.4497C26.2096 49.4497 23.5176 48.0394 21.7766 45.837L20.2076 47.0773ZM11.0247 54.6523C16.1125 54.6523 20.426 51.3482 21.9414 46.7715L20.0428 46.1428C18.7903 49.9254 15.2246 52.6523 11.0247 52.6523V54.6523ZM-0.472656 43.155C-0.472656 49.5048 4.67487 54.6523 11.0247 54.6523V52.6523C5.77944 52.6523 1.52734 48.4003 1.52734 43.155H-0.472656ZM11.0247 31.6577C4.67487 31.6577 -0.472656 36.8052 -0.472656 43.155H1.52734C1.52734 37.9098 5.77944 33.6577 11.0247 33.6577V31.6577ZM11.6549 31.6747C11.4462 31.6634 11.236 31.6577 11.0247 31.6577V33.6577C11.2 33.6577 11.3741 33.6625 11.5469 33.6718L11.6549 31.6747ZM12.5457 32.3457C12.2082 31.372 12.0244 30.3254 12.0244 29.2336H10.0244C10.0244 30.5513 10.2465 31.8193 10.6561 33.0008L12.5457 32.3457ZM12.0244 29.2336C12.0244 23.9884 16.2765 19.7363 21.5217 19.7363V17.7363C15.1719 17.7363 10.0244 22.8839 10.0244 29.2336H12.0244ZM21.5217 19.7363C21.7108 19.7363 21.8984 19.7418 22.0845 19.7527L22.201 17.7561C21.9762 17.743 21.7497 17.7363 21.5217 17.7363V19.7363ZM20.5215 14.8657C20.5215 16.3316 20.757 17.7445 21.193 19.0674L23.0925 18.4414C22.7222 17.3179 22.5215 16.1163 22.5215 14.8657H20.5215ZM33.9346 1.45264C26.5267 1.45264 20.5215 7.45788 20.5215 14.8657H22.5215C22.5215 8.56245 27.6313 3.45264 33.9346 3.45264V1.45264ZM43.4241 5.38634C40.9976 2.95715 37.6408 1.45264 33.9346 1.45264V3.45264C37.0887 3.45264 39.9424 4.73078 42.0092 6.7998L43.4241 5.38634ZM54.0967 -0.502441C49.1415 -0.502441 44.7338 1.84385 41.9251 5.48197L43.5082 6.70416C45.9545 3.53545 49.7874 1.49756 54.0967 1.49756V-0.502441ZM69.4648 14.8657C69.4648 6.37812 62.5843 -0.502441 54.0967 -0.502441V1.49756C61.4797 1.49756 67.4648 7.48269 67.4648 14.8657H69.4648Z" fill="black" mask="url(#path-1-inside-1_450_60174)"/>
</svg>
