<svg width="83" height="47" viewBox="0 0 83 47" fill="none" xmlns="http://www.w3.org/2000/svg">
<mask id="path-1-inside-1_450_60163" fill="white">
<path fill-rule="evenodd" clip-rule="evenodd" d="M23.5024 39.5328C21.2873 40.7824 18.7293 41.4954 16.0048 41.4954C7.56469 41.4954 0.722656 34.6533 0.722656 26.2133C0.722656 17.7732 7.56469 10.9312 16.0048 10.9312C19.5986 10.9312 22.9028 12.1717 25.5123 14.248C26.294 6.54092 32.8024 0.526367 40.7157 0.526367C46.2388 0.526367 51.0776 3.45634 53.7626 7.84676C56.4475 3.45634 61.2863 0.526367 66.8094 0.526367C75.2495 0.526367 82.0916 7.3684 82.0916 15.8085C82.0916 20.3038 80.1506 24.3459 77.0609 27.1422C77.3969 28.4017 77.5759 29.7253 77.5759 31.0907C77.5759 39.5308 70.7339 46.3728 62.2938 46.3728C56.7854 46.3728 51.9576 43.4584 49.2684 39.0874C46.5792 43.4584 41.7515 46.3728 36.243 46.3728C30.9239 46.3728 26.2395 43.6553 23.5024 39.5328Z"/>
</mask>
<path fill-rule="evenodd" clip-rule="evenodd" d="M23.5024 39.5328C21.2873 40.7824 18.7293 41.4954 16.0048 41.4954C7.56469 41.4954 0.722656 34.6533 0.722656 26.2133C0.722656 17.7732 7.56469 10.9312 16.0048 10.9312C19.5986 10.9312 22.9028 12.1717 25.5123 14.248C26.294 6.54092 32.8024 0.526367 40.7157 0.526367C46.2388 0.526367 51.0776 3.45634 53.7626 7.84676C56.4475 3.45634 61.2863 0.526367 66.8094 0.526367C75.2495 0.526367 82.0916 7.3684 82.0916 15.8085C82.0916 20.3038 80.1506 24.3459 77.0609 27.1422C77.3969 28.4017 77.5759 29.7253 77.5759 31.0907C77.5759 39.5308 70.7339 46.3728 62.2938 46.3728C56.7854 46.3728 51.9576 43.4584 49.2684 39.0874C46.5792 43.4584 41.7515 46.3728 36.243 46.3728C30.9239 46.3728 26.2395 43.6553 23.5024 39.5328Z" fill="white"/>
<path d="M23.5024 39.5328L24.3355 38.9797L23.8211 38.2049L23.0111 38.6618L23.5024 39.5328ZM25.5123 14.248L24.8897 15.0305L26.3224 16.1705L26.5072 14.3489L25.5123 14.248ZM53.7626 7.84676L52.9095 8.36848L53.7626 9.7635L54.6157 8.36848L53.7626 7.84676ZM77.0609 27.1422L76.3899 26.4008L75.9375 26.8103L76.0947 27.3999L77.0609 27.1422ZM49.2684 39.0874L50.1201 38.5634L49.2684 37.1791L48.4167 38.5634L49.2684 39.0874ZM23.0111 38.6618C20.942 39.829 18.5527 40.4954 16.0048 40.4954V42.4954C18.9059 42.4954 21.6326 41.7357 23.9937 40.4038L23.0111 38.6618ZM16.0048 40.4954C8.11697 40.4954 1.72266 34.101 1.72266 26.2133H-0.277344C-0.277344 35.2056 7.0124 42.4954 16.0048 42.4954V40.4954ZM1.72266 26.2133C1.72266 18.3255 8.11697 11.9312 16.0048 11.9312V9.93115C7.0124 9.93115 -0.277344 17.2209 -0.277344 26.2133H1.72266ZM16.0048 11.9312C19.3645 11.9312 22.4508 13.09 24.8897 15.0305L26.1349 13.4655C23.3548 11.2535 19.8328 9.93115 16.0048 9.93115V11.9312ZM26.5072 14.3489C27.2376 7.14721 33.3209 1.52637 40.7157 1.52637V-0.473633C32.284 -0.473633 25.3503 5.93463 24.5174 14.1471L26.5072 14.3489ZM40.7157 1.52637C45.8763 1.52637 50.3986 4.26275 52.9095 8.36848L54.6157 7.32504C51.7567 2.64994 46.6014 -0.473633 40.7157 -0.473633V1.52637ZM54.6157 8.36848C57.1265 4.26275 61.6489 1.52637 66.8094 1.52637V-0.473633C60.9237 -0.473633 55.7685 2.64994 52.9095 7.32504L54.6157 8.36848ZM66.8094 1.52637C74.6972 1.52637 81.0916 7.92068 81.0916 15.8085H83.0916C83.0916 6.81611 75.8018 -0.473633 66.8094 -0.473633V1.52637ZM81.0916 15.8085C81.0916 20.0096 79.2789 23.786 76.3899 26.4008L77.732 27.8836C81.0222 24.9057 83.0916 20.5981 83.0916 15.8085H81.0916ZM76.0947 27.3999C76.4084 28.5761 76.5759 29.8131 76.5759 31.0907H78.5759C78.5759 29.6375 78.3853 28.2274 78.0272 26.8845L76.0947 27.3999ZM76.5759 31.0907C76.5759 38.9785 70.1816 45.3728 62.2938 45.3728V47.3728C71.2862 47.3728 78.5759 40.0831 78.5759 31.0907H76.5759ZM62.2938 45.3728C57.147 45.3728 52.635 42.651 50.1201 38.5634L48.4167 39.6114C51.2803 44.2658 56.4238 47.3728 62.2938 47.3728V45.3728ZM48.4167 38.5634C45.9019 42.651 41.3899 45.3728 36.243 45.3728V47.3728C42.1131 47.3728 47.2566 44.2658 50.1201 39.6114L48.4167 38.5634ZM36.243 45.3728C31.2729 45.3728 26.8951 42.8349 24.3355 38.9797L22.6693 40.0859C25.5838 44.4756 30.5749 47.3728 36.243 47.3728V45.3728Z" fill="black" mask="url(#path-1-inside-1_450_60163)"/>
</svg>
