<svg width="79" height="118" viewBox="0 0 79 118" fill="none" xmlns="http://www.w3.org/2000/svg">
<path d="M47.9141 21.6465C48.0557 24.4566 48.7224 27.2518 48.7224 30.0653" stroke="white" stroke-width="3" stroke-linecap="round"/>
<path d="M45.8984 19.4414C45.8984 22.8497 46.1005 33.0724 46.1005 29.6642" stroke="white" stroke-width="3" stroke-linecap="round"/>
<path d="M44.0729 18.8398C43.9377 22.3277 43.4667 25.7925 43.4667 29.2854C43.4667 30.6773 43.2057 29.2299 43.0625 28.6617" stroke="white" stroke-width="3" stroke-linecap="round"/>
<path d="M40.035 20.2422C40.035 22.8773 40.009 25.5137 40.035 28.1487C40.0405 28.7001 40.2116 30.0625 40.035 28.661" stroke="white" stroke-width="3" stroke-linecap="round"/>
<path d="M37.8125 19.4414C38.2825 22.5182 38.3956 25.6368 38.9352 28.7065C39.0087 29.1248 39.0119 29.8582 39.4292 30.0651" stroke="white" stroke-width="3" stroke-linecap="round"/>
<path d="M42.662 21.6465C42.662 24.0636 42.7924 26.5167 42.6171 28.9294C42.5051 30.4699 42.3725 30.0004 42.2578 28.8626" stroke="white" stroke-width="3" stroke-linecap="round"/>
<path d="M39.0219 20.4434C38.45 23.2797 37.844 26.113 37.4052 28.9735C37.3955 29.0369 37.2031 30.8478 37.2031 30.0648" stroke="white" stroke-width="3" stroke-linecap="round"/>
<path d="M33.7734 21.2461C33.8276 23.7186 33.9755 31.1357 33.9755 28.6626" stroke="white" stroke-width="3" stroke-linecap="round"/>
<path d="M29.6953 21.7598C29.9412 22.2475 30.2481 22.6975 30.4339 23.2135C30.6221 23.7363 30.754 24.2189 30.8493 24.776C30.9934 25.6174 31.2424 26.5021 31.2532 27.3572C31.2701 28.6968 31.4609 30.0254 31.4609 31.3692C31.4609 31.6745 31.4609 31.9797 31.4609 32.285C31.4609 32.3479 31.4609 32.8291 31.4609 32.5768" stroke="white" stroke-width="3" stroke-linecap="round"/>
<path d="M31.9277 20.7305C31.6897 20.76 31.7662 21.5265 31.7604 21.629C31.7135 22.4535 31.7719 23.2602 31.7719 24.0786" stroke="white" stroke-width="3" stroke-linecap="round"/>
<path d="M34.4219 21.9141C34.778 22.4847 34.9062 23.2241 35.1489 23.8485C35.4291 24.5695 35.6738 25.3363 35.85 26.0892C35.9523 26.5265 36.1085 26.9454 36.199 27.3856C36.2045 27.4121 36.2914 27.6585 36.2914 27.5801" stroke="white" stroke-width="3" stroke-linecap="round"/>
<path d="M36.2344 21.6562C36.2344 22.5475 36.3115 23.4465 36.3786 24.3348C36.4022 24.6461 36.3513 25.0818 36.494 25.365" stroke="white" stroke-width="3" stroke-linecap="round"/>
<path d="M31.6874 32.0762C31.6241 32.7045 31.4474 33.504 31.1912 34.0757C30.986 34.5338 30.5215 34.8938 30.1678 35.2447C29.3896 36.0166 28.371 36.5391 27.5179 37.2442C27.224 37.4871 26.8726 37.7096 26.5531 37.9209C26.216 38.1439 25.899 38.4846 25.5469 38.6592" stroke="white" stroke-width="3" stroke-linecap="round"/>
<path d="M25.2964 38.8438C25.0814 39.0569 24.8492 39.2589 24.6761 39.5068C24.5298 39.7165 24.405 39.9586 24.2109 40.1084C23.8394 40.395 23.5698 40.7859 23.3391 41.1782C23.1423 41.5129 22.7568 41.6798 22.4914 41.9336C22.281 42.1349 21.5919 42.4765 21.5748 42.7813C21.5597 43.0516 21.5836 43.2904 21.5128 43.5537C21.4025 43.9639 21.1406 44.3913 21.1406 44.8116" stroke="white" stroke-width="3" stroke-linecap="round"/>
<path d="M20.9531 45.7363C20.9531 46.4187 21.2381 47.0396 21.6974 47.5205C21.8159 47.6446 21.9129 47.8642 21.9766 48.0195C22.237 48.6554 22.453 49.3106 22.6933 49.9541C23.1506 51.1789 23.6602 52.4919 23.8063 53.796" stroke="white" stroke-width="3" stroke-linecap="round"/>
<path d="M23.3056 53.5488C23.2877 53.9203 23.1742 54.295 23.1195 54.6631C23.0197 55.3339 22.9954 55.9775 22.9954 56.6558C22.9954 57.0647 22.9684 57.4846 22.9989 57.8931C23.0138 58.0931 23.1195 58.2729 23.1195 58.4707" stroke="white" stroke-width="3" stroke-linecap="round"/>
<path d="M22.9983 58.9629C22.9735 60.4624 22.9399 61.9306 23.3084 63.3926" stroke="white" stroke-width="3" stroke-linecap="round"/>
<path d="M23 62.4707C23 63.671 23.0822 64.9492 24.0544 65.793" stroke="white" stroke-width="3" stroke-linecap="round"/>
<path d="M23.3125 65.6074C23.3947 66.0968 23.7924 66.5517 24.0465 66.9507C24.3187 67.3782 24.6548 67.7386 25.0148 68.0957C25.2964 68.3751 25.5336 68.7016 25.8556 68.9297" stroke="white" stroke-width="3" stroke-linecap="round"/>
<path d="M25.2344 69.1152C26.0381 69.84 27.1066 70.0752 27.9394 70.7217C28.7579 71.3571 29.5468 72.0526 30.3033 72.7588C30.8398 73.2597 31.3941 73.7367 32.0124 74.1363C32.8464 74.6752 33.6327 74.8985 34.6003 75.0831" stroke="white" stroke-width="3" stroke-linecap="round"/>
<path d="M33.9141 76.0664C35.0106 76.429 36.2005 76.4356 37.3427 76.4356C38.4729 76.4356 39.6652 76.5384 40.7852 76.3604C42.5762 76.0757 44.3863 75.6864 46.1332 75.2051" stroke="white" stroke-width="3" stroke-linecap="round"/>
<path d="M44.4609 76.6817C45.3448 76.5599 46.2084 76.3212 47.0695 76.0938C48.2307 75.787 49.4423 75.5002 50.4981 74.9111C51.0253 74.617 51.4757 74.2283 51.9247 73.8311C52.0521 73.7183 52.1904 73.5558 52.3382 73.4824" stroke="white" stroke-width="3" stroke-linecap="round"/>
<path d="M50.7891 75.2061C53.1717 74.5842 53.9801 71.993 55.2549 70.2227" stroke="white" stroke-width="3" stroke-linecap="round"/>
<path d="M54.6328 72.3145C55.1438 72.0104 55.493 71.4856 55.7803 70.9849C56.3686 69.9598 56.8452 68.8001 57.0518 67.6387" stroke="white" stroke-width="3" stroke-linecap="round"/>
<path d="M57.1172 69.9747C57.4002 69.5852 57.7066 69.1813 57.9235 68.751C58.1932 68.2161 58.2737 67.6107 58.4266 67.0386C58.7005 66.0136 58.8891 64.9929 59.04 63.9453" stroke="white" stroke-width="3" stroke-linecap="round"/>
<path d="M59.4084 66.3457C59.4084 64.4849 58.9694 62.7488 58.6641 60.9316" stroke="white" stroke-width="3" stroke-linecap="round"/>
<path d="M59.5312 60.625C59.8167 59.6183 59.8341 58.5282 60.0412 57.501C60.0785 57.3162 60.3081 56.5498 60.0895 56.4414" stroke="white" stroke-width="3" stroke-linecap="round"/>
<path d="M59.9647 57.4239C59.7861 57.1936 59.6631 56.8725 59.5788 56.5967C59.3464 55.8369 59.1529 55.06 58.9447 54.293C58.6153 53.0791 58.4141 51.9114 58.4141 50.6562" stroke="white" stroke-width="3" stroke-linecap="round"/>
<path d="M59.6562 53.6104C59.7614 51.7685 60.4178 49.9668 60.6487 48.1348" stroke="white" stroke-width="3" stroke-linecap="round"/>
<path d="M62.7599 44.875C62.1561 46.0728 61.5844 47.2833 60.9887 48.4844C60.6282 49.2115 60.2274 49.95 59.9688 50.7198" stroke="white" stroke-width="3" stroke-linecap="round"/>
<path d="M62.3858 43.7676C62.179 43.2206 61.5498 42.7378 61.1074 42.3799C60.4269 41.8296 59.7203 41.3369 58.9124 40.9854C57.2017 40.2411 55.3749 39.7099 53.5781 39.2148" stroke="white" stroke-width="3" stroke-linecap="round"/>
<path d="M59.0381 39.6436C58.5498 38.8511 56.9759 38.5565 56.1711 38.3652C55.0092 38.0891 53.8813 37.8067 52.7734 37.3672" stroke="white" stroke-width="3" stroke-linecap="round"/>
<path d="M56.4301 37.4287C55.266 37.0679 54.0353 36.9818 52.8395 36.7793C51.3356 36.5246 49.8174 36.4265 48.3047 36.2598" stroke="white" stroke-width="3" stroke-linecap="round"/>
<path d="M53.8276 35.3369C51.8269 34.9152 49.665 34.9062 47.625 34.9062" stroke="white" stroke-width="3" stroke-linecap="round"/>
<path d="M50.1025 33.9844C49.5906 32.9551 49.1575 31.9029 48.8137 30.8057C48.6055 30.1409 48.4393 29.4601 48.1797 28.8164" stroke="white" stroke-width="3" stroke-linecap="round"/>
<path d="M46.5075 29.4926C47.1095 30.9605 47.7936 32.3942 48.382 33.8676C48.6964 34.6547 49.0251 35.4351 49.3469 36.2192C49.3955 36.3376 49.444 36.4559 49.4916 36.5747C49.5334 36.6788 49.7137 36.9084 49.6019 36.8926C49.4329 36.8686 49.0476 35.9622 48.9851 35.8467C47.6583 33.394 46.5689 30.8143 45.1774 28.3988C45.1631 28.374 45.0534 28.1132 45.1291 28.3236C45.2822 28.7489 45.4173 29.1786 45.5771 29.602C46.4565 31.9314 47.5941 34.2409 48.1925 36.6636C48.3946 37.4816 47.7237 36.5172 47.6377 36.4106C47.0388 35.6681 46.4811 34.8921 45.8976 34.1377C45.0486 33.0401 44.2165 31.8648 43.289 30.8325C43.1281 30.6534 43.3658 31.3099 43.4544 31.5331C43.7887 32.3751 44.144 33.2086 44.4744 34.0522C45.0255 35.4594 45.5091 36.8908 46.0526 38.3008C46.6867 39.9458 44.1536 35.3189 43.3442 33.7514C42.9476 32.9835 42.6537 32.1478 42.2415 31.393C41.7849 30.557 42.8563 33.1943 43.1477 34.1001C43.5061 35.2138 43.7731 36.3472 44.0437 37.4839C44.1983 38.1336 43.7742 37.4363 43.6267 37.2207C42.7771 35.9781 42.0669 34.6325 41.3662 33.3037C40.9583 32.53 39.9934 30.0904 40.2842 30.9145C40.548 31.6622 40.8955 32.3818 41.1526 33.1362C41.5406 34.2747 41.8345 35.4145 42.0968 36.5849C42.1438 36.795 41.8372 36.2364 41.7453 36.0415C41.1799 34.843 40.8633 33.5687 40.553 32.2885C40.4459 31.8467 40.3456 31.4068 40.2877 30.9555C40.2664 30.7902 40.1328 30.3439 40.2566 30.4565C40.3519 30.5431 40.4563 31.0475 40.4772 31.1127C40.7003 31.8107 40.9494 32.5019 41.1457 33.208C41.4541 34.3175 41.6419 35.4452 41.8521 36.5747C41.9071 36.8702 42.0386 37.2865 41.7797 36.7729C41.017 35.2598 40.4319 33.6344 39.8431 32.0493C39.6848 31.6231 39.5435 31.1933 39.3952 30.7641C39.2218 30.2624 39.7296 31.7717 39.9086 32.2714C40.5853 34.1601 41.1806 36.0441 41.6522 37.9932C41.7386 38.3503 41.8187 38.7123 41.952 39.0562C42.0061 39.1957 42.0339 39.2603 41.8969 39.0767C41.2433 38.2006 40.763 37.1513 40.3256 36.1577C39.789 34.9389 39.2837 33.6973 38.83 32.4458C38.6609 31.979 38.4984 31.5093 38.3442 31.0375C38.3425 31.0323 38.2 30.6432 38.3545 30.9145C39.0114 32.068 39.4442 33.3933 39.8569 34.6469C39.9019 34.7835 40.6306 36.9174 40.4875 36.9985C40.2837 37.1141 38.8809 34.5353 38.7956 34.3803C38.0508 33.0265 37.3961 31.629 36.8039 30.2035C36.644 29.8187 36.4979 29.4263 36.3214 29.0483C36.2989 29 36.2277 28.8595 36.2387 28.9115C36.272 29.0681 36.3421 29.2146 36.3938 29.3661C36.8953 30.8341 37.3649 32.3058 37.941 33.748C38.5613 35.3008 39.2575 36.8199 39.9258 38.352C40.1184 38.7934 39.2174 37.8028 39.1815 37.7573C38.089 36.374 37.5126 34.5017 36.8935 32.8833C36.5071 31.8733 36.08 30.8661 35.7356 29.8412C35.4762 29.0692 36.1243 30.5856 36.156 30.6684C36.6811 32.0378 37.1662 33.4226 37.6378 34.811C37.8237 35.3584 38.0042 35.9076 38.2098 36.4482C38.2963 36.6758 38.6702 37.2406 38.4476 37.1387C38.2863 37.0648 38.085 36.6546 38.0168 36.5405C37.7279 36.0573 37.4642 35.5574 37.207 35.0571C36.6264 33.9273 36.0676 32.7865 35.4875 31.6562C35.3441 31.3767 34.98 30.5335 35.0051 30.8461C35.0479 31.3793 35.349 32.0205 35.5151 32.5107C36.0742 34.1607 36.6745 35.7987 37.307 37.4224C37.3249 37.4684 37.9038 38.6446 37.5275 38.2427C36.7132 37.3728 36.2172 36.2843 35.7322 35.2143C35.279 34.2147 34.8309 33.2143 34.3366 32.2338C34.2611 32.084 33.9973 31.2838 34.0678 31.851C34.2912 33.6468 34.785 35.3308 35.205 37.0806C35.2712 37.3564 35.0921 36.9791 35.0878 36.9712C34.892 36.6057 34.7105 36.2311 34.5399 35.8535C34.1342 34.9551 33.758 34.0204 33.5027 33.0678C33.3181 32.3789 33.1537 31.6858 32.9996 30.9897C32.9906 30.9492 32.8814 30.4552 32.9238 30.5077C33.0372 30.6483 33.1656 30.7783 33.296 30.9077" stroke="white" stroke-width="3" stroke-linecap="round"/>
<path d="M38.0707 39.0915C37.3591 40.2208 36.3591 41.1326 35.2037 41.8122C35.067 41.8926 34.9346 41.9775 34.8005 42.0617C34.6603 42.1499 34.8078 41.7245 34.8729 41.573C35.466 40.1917 36.5283 38.9986 37.6192 37.9772C37.6663 37.9332 38.2065 37.4317 37.7743 37.9499C36.8621 39.0437 35.8021 40.0128 34.7764 40.9987C34.5065 41.2581 34.1679 41.5334 33.9425 41.8464C33.9365 41.8547 33.8869 41.9544 33.8667 41.8943C33.6258 41.1775 33.7856 40.083 33.9356 39.3718C34.078 38.6962 34.7971 36.7518 34.5145 37.3825C33.7065 39.1858 32.5075 40.8343 31.3029 42.3967C31.1313 42.6193 31.1367 42.4714 31.1651 42.2566C31.2542 41.5823 31.4475 40.9293 31.6889 40.2946C32.152 39.0767 32.7461 37.912 33.2395 36.7057C33.3057 36.544 33.3666 36.3458 33.4704 36.1999C33.5788 36.0476 33.4243 36.5716 33.3705 36.7502C33.2179 37.2564 32.9906 37.7197 32.7433 38.1857C32.5692 38.5139 32.4139 38.9419 32.1575 39.218C31.9564 39.4346 31.9406 39.0056 31.9301 38.9138C31.8597 38.302 31.8681 37.6757 31.8681 37.0612C31.8681 36.3158 31.9301 34.0804 31.9301 34.8259C31.9301 35.2537 31.7135 35.6761 31.5614 36.0666C31.1897 37.0209 30.8294 37.98 30.4759 38.9411C30.4321 39.0602 29.7075 41.009 29.6868 40.9987C29.4722 40.8923 29.4201 40.1732 29.3974 40.0144C29.3095 39.4 29.2779 38.7749 29.2664 38.155C29.2609 37.8581 29.2528 37.5559 29.2768 37.2595C29.2793 37.2278 29.3077 37.139 29.3112 37.1706C29.3239 37.286 29.3052 37.5595 29.2974 37.6423C29.1588 39.1201 28.5704 40.4952 28.0569 41.8738C27.8661 42.3859 27.6908 42.9034 27.5194 43.4221C27.3879 43.82 27.3472 44.067 27.0438 43.6238C26.3756 42.6476 26.2237 41.2273 26.2237 40.0691C26.2237 38.2776 26.5771 43.6651 26.3478 45.4421C26.3366 45.5285 26.3359 45.9635 26.1513 45.8079C25.4948 45.2543 25.2892 44.0168 25.1451 43.2341C25.0588 42.7649 24.9832 42.3032 24.9832 41.8259C24.9832 41.1283 25.0431 43.2201 25.0452 43.9177C25.0479 44.8223 25.0452 45.727 25.0452 46.6316C25.0452 47.0136 24.5143 45.9408 24.4835 45.8831C24.1736 45.3003 23.8594 44.716 23.5704 44.1228C23.5229 44.0253 23.5014 43.9663 23.5014 44.1433C23.5014 44.6765 23.5385 45.2136 23.56 45.7463C23.5926 46.5552 23.7425 47.3936 23.6806 48.2039C23.6612 48.4586 23.3918 47.9847 23.3843 47.9715C23.0338 47.3491 22.8309 46.6139 22.6331 45.9343C22.4591 45.3367 21.9982 43.961 22.5021 43.3811C22.9304 42.8883 23.6604 42.5694 24.2285 42.2771C24.8629 41.9507 25.5227 41.6779 26.1617 41.3611C27.0666 40.9123 27.9258 40.3859 28.7668 39.8298C28.7809 39.8204 29.8223 39.0832 29.7592 39.0437C29.7309 39.0259 29.6915 39.0448 29.6592 39.0539C29.4025 39.1261 28.8235 39.3484 28.6462 39.4162C28.2094 39.5833 27.3091 39.7799 27.0094 40.2058C26.5347 40.8802 26.6685 41.7076 27.0576 42.3728C27.5927 43.2877 28.428 43.5465 29.4422 43.6033C30.0066 43.6349 30.95 43.6426 31.4235 43.2512C31.7995 42.9405 30.9033 44.0736 30.6551 44.4919C30.0125 45.575 29.3771 46.7163 28.8839 47.8758C28.8153 48.037 29.1228 47.618 29.2389 47.4861C29.7394 46.917 30.2868 46.3993 30.8481 45.8899C31.3884 45.3996 31.9328 44.9139 32.4883 44.4407C32.5955 44.3494 32.8006 44.1794 32.9156 44.0715C32.9563 44.0333 32.9784 43.9384 33.0328 43.9519C33.1071 43.9703 32.5356 45.7445 32.4883 45.8865C32.3885 46.1864 32.2931 46.4883 32.1851 46.7854C32.1786 46.8032 32.0265 47.2908 31.9645 47.0896C31.7485 46.3881 31.8937 45.4442 32.0541 44.7449C32.093 44.5756 32.1403 44.4083 32.1782 44.239C32.2142 44.0783 32.161 44.5683 32.1368 44.7312C31.9866 45.7438 31.6917 46.6891 31.365 47.6536C31.1779 48.2058 31.0301 48.7692 30.855 49.325C30.8171 49.4451 30.7677 49.7483 30.6586 49.8445C30.3983 50.074 28.9179 47.1414 28.8426 46.7752C28.8364 46.7454 28.8591 46.8339 28.8632 46.864C28.9738 47.6631 28.9134 48.5004 28.8805 49.3011C28.8459 50.1419 28.8097 50.9885 28.6496 51.8167C28.6468 51.831 28.6043 52.2466 28.5497 52.1653C27.7203 50.9313 27.1987 49.4324 26.5821 48.0877C26.5008 47.9104 26.2797 47.3812 26.2995 47.575C26.3606 48.1718 26.4176 48.7659 26.4442 49.366C26.4924 50.45 26.4291 51.5375 26.5028 52.6199C26.5269 52.9735 26.5735 53.6389 26.3788 52.8763C26.177 52.0864 26.065 51.2514 25.9411 50.4461C25.8832 50.0696 26.0041 50.4085 26.0996 50.535" stroke="white" stroke-width="3" stroke-linecap="round"/>
<path d="M29.0788 43.5215C29.0367 44.1263 28.6588 44.7369 28.4585 45.3023C28.2003 46.0312 27.8537 46.7318 27.5695 47.4522C27.3512 48.0056 27.0399 48.4265 26.7184 48.9048C26.5211 49.1983 26.0925 49.3505 25.788 49.4927C25.4537 49.6487 25.1052 49.8145 24.7508 49.92C24.5207 49.9884 24.2811 49.9682 24.0547 50.043" stroke="white" stroke-width="3" stroke-linecap="round"/>
<path d="M26.7829 51.7656C26.671 52.1543 26.363 52.4533 26.2522 52.8457C26.1597 53.1734 26.0797 53.4881 26.0041 53.8198C25.8405 54.5386 25.9515 55.2326 26.0731 55.9561C26.4033 57.9217 26.8848 59.8691 27.5893 61.7325" stroke="white" stroke-width="3" stroke-linecap="round"/>
<path d="M24.3672 55.5176C24.5526 56.3268 24.9052 57.1311 25.1735 57.917C25.4983 58.8681 25.7417 59.8522 26.1659 60.7676C26.4732 61.4306 26.8781 62.0437 27.2066 62.6954C27.276 62.833 27.3261 63.0759 27.4685 63.1465" stroke="white" stroke-width="3" stroke-linecap="round"/>
<path d="M25.1094 60.625C25.1405 61.6138 25.4069 62.6585 25.7572 63.585C26.0779 64.4332 26.6531 65.4314 27.3423 66.0391" stroke="white" stroke-width="3" stroke-linecap="round"/>
<path d="M25.6641 64.0703C25.7131 64.654 26.0217 65.1839 26.2981 65.6836C26.7689 66.5347 27.3662 67.2996 27.9935 68.042C28.4295 68.5581 28.7361 68.8233 29.3856 68.9307" stroke="white" stroke-width="3" stroke-linecap="round"/>
<path d="M28.8281 68.8066C29.151 69.2042 29.5816 69.4925 29.9446 69.8525C30.2527 70.1582 30.5627 70.4407 30.9232 70.6865C31.6451 71.1788 32.3539 71.6744 33.0803 72.1597C33.8811 72.6946 34.8124 72.8914 35.7613 73.0176C37.4385 73.2408 39.0986 73.6055 40.7991 73.6055" stroke="white" stroke-width="3" stroke-linecap="round"/>
<path d="M35.9609 74.5283C37.6586 74.5283 39.2931 74.3681 40.9781 74.1592C42.5117 73.9691 44.2017 73.7341 45.6577 73.209C46.2795 72.9847 46.9108 72.7871 47.5322 72.563C47.9339 72.4181 48.3014 72.2117 48.7107 72.0811C48.9501 72.0047 49.2293 71.7598 49.4826 71.7598" stroke="white" stroke-width="3" stroke-linecap="round"/>
<path d="M47.0625 73.9132C47.7985 73.9132 48.6059 73.4564 49.23 73.1065C49.9156 72.7222 50.3892 72.1675 50.9736 71.6641C51.4983 71.2122 52.0434 70.75 52.5346 70.2628C53.193 69.6096 53.7441 68.8564 54.3506 68.1573C54.8429 67.5897 55.3257 67.003 55.7461 66.3799C56.2161 65.6835 56.1038 64.708 56.3044 63.9121C56.5528 62.9266 56.9246 61.9601 56.9246 60.9316" stroke="white" stroke-width="3" stroke-linecap="round"/>
<path d="M57.2969 61.1788C57.6625 60.3758 57.9659 59.5459 58.1239 58.6768C58.3632 57.3605 58.2261 56.0218 58.1308 54.6983C58.009 53.0068 57.943 51.2171 57.607 49.5508" stroke="white" stroke-width="3" stroke-linecap="round"/>
<path d="M57.9167 52.3809C57.9936 50.8538 58.0758 49.3784 57.9167 47.8452C57.7736 46.4663 57.5075 45.1221 57.2344 43.7676" stroke="white" stroke-width="3" stroke-linecap="round"/>
<path d="M57.6094 40.875C57.9582 41.4048 58.3387 41.9083 58.7086 42.4234C59.1935 43.0985 59.5361 43.8627 59.9181 44.5972C60.2843 45.3013 60.7339 46.104 60.8347 46.9043" stroke="white" stroke-width="3" stroke-linecap="round"/>
<path d="M55.4375 40.5684C55.9554 41.5958 56.5861 42.555 57.1398 43.5625C57.6249 44.4452 58.046 45.3571 58.4699 46.2696C58.5402 46.4209 58.6629 46.6048 58.6629 46.7823" stroke="white" stroke-width="3" stroke-linecap="round"/>
<path d="M47 38.6602C48.5604 39.7126 50.0052 40.9771 51.142 42.4746C51.5763 43.0468 51.9846 43.641 52.4307 44.2041C52.477 44.2625 52.8226 44.6023 52.5823 44.4434" stroke="white" stroke-width="3" stroke-linecap="round"/>
<path d="M49.1719 38.4766C49.9506 38.7719 50.6096 39.2245 51.2187 39.7822C52.3716 40.8378 53.5091 41.9766 54.3821 43.2754" stroke="white" stroke-width="3" stroke-linecap="round"/>
<path d="M53.3906 41.6758C54.0325 42.4034 54.6905 43.1308 55.1549 43.9863C55.5964 44.7996 55.943 45.6463 56.2163 46.5293C56.7095 48.1234 57.0135 49.7331 57.1122 51.3966" stroke="white" stroke-width="3" stroke-linecap="round"/>
<path d="M53.2656 44.0117C54.4039 45.9119 55.0667 48.1461 55.6571 50.2632C55.9767 51.4094 56.243 52.5762 56.6633 53.6915C56.6841 53.7468 56.9799 54.4708 56.9252 54.4708" stroke="white" stroke-width="3" stroke-linecap="round"/>
<path d="M52.7734 45.1211C53.6992 46.6889 54.2329 48.6028 54.6756 50.3506C54.9651 51.4939 55.1464 52.6447 55.3785 53.796" stroke="white" stroke-width="3" stroke-linecap="round"/>
<path d="M51.5938 47.2734C52.2488 48.9751 52.8288 50.6573 53.2616 52.4278C53.5121 53.4529 54.287 56.5184 53.9507 55.5176" stroke="white" stroke-width="3" stroke-linecap="round"/>
<path d="M50.6641 47.5195C51.8063 50.0082 52.8655 52.5102 53.8308 55.0699C54.1996 56.0477 54.4985 57.0495 54.8784 58.023C55.0644 58.4996 55.2775 58.9715 55.4401 59.4552" stroke="white" stroke-width="3" stroke-linecap="round"/>
<path d="M55.9375 53.6719C56.464 54.898 57.003 56.1413 57.3503 57.4317C57.5346 58.1165 57.6217 58.8229 57.7983 59.5098C57.8283 59.6267 58.265 61.1163 58.1704 61.1163" stroke="white" stroke-width="3" stroke-linecap="round"/>
<path d="M51.2812 50.1035C51.4557 52.3025 51.6131 54.5056 51.7499 56.7071C51.8168 57.7829 51.9015 58.8692 51.9015 59.9473" stroke="white" stroke-width="3" stroke-linecap="round"/>
<path d="M50.1661 52.0723C50.0799 53.1145 49.8236 54.1383 49.6733 55.1724C49.4948 56.4004 49.4605 57.6435 49.3907 58.8809C49.2818 60.8146 49.2977 62.7489 49.2977 64.6847" stroke="white" stroke-width="3" stroke-linecap="round"/>
<path d="M48.8624 56.1953C48.5321 59.8719 48.482 63.556 49.0485 67.2081" stroke="white" stroke-width="3" stroke-linecap="round"/>
<path d="M55.5649 60.2539C55.1994 62.7078 55.1009 65.4275 53.8281 67.6368" stroke="white" stroke-width="3" stroke-linecap="round"/>
<path d="M51.7812 62.1621C51.7812 64.0296 51.9053 65.8944 51.9053 67.7608" stroke="white" stroke-width="3" stroke-linecap="round"/>
<path d="M53.2656 62.7773C53.7945 63.5844 53.8239 64.5601 53.8239 65.4844" stroke="white" stroke-width="3" stroke-linecap="round"/>
<path d="M49.2393 62.7168C49.1525 64.2009 49.1189 65.7161 49.2117 67.2012C49.2692 68.1214 49.3633 69.054 49.3633 69.9766" stroke="white" stroke-width="3" stroke-linecap="round"/>
<path d="M48.9844 60.625C49.6332 62.8061 50.2589 65.0751 50.6246 67.3243C50.7263 67.9495 50.8452 68.6024 50.8452 69.2383" stroke="white" stroke-width="3" stroke-linecap="round"/>
<path d="M50.4796 71.7599C50.2817 71.4503 50.1516 71.1116 50.0213 70.7687C49.3242 68.9345 49.0239 66.9769 48.7119 65.0504C48.384 63.0258 47.9671 60.851 48.1571 58.7783C48.2647 57.6037 48.5448 56.4458 48.6188 55.2715" stroke="white" stroke-width="3" stroke-linecap="round"/>
<path d="M48.6809 53.4258C48.5344 53.9828 48.2774 54.5142 48.1088 55.0664C47.8043 56.0641 47.6073 57.0872 47.4403 58.1153C47.0842 60.3082 46.8031 62.6134 47.0613 64.8282C47.3142 66.9978 47.7582 69.1589 48.1433 71.3087C48.2555 71.9354 48.4948 72.6582 48.4948 73.298" stroke="white" stroke-width="3" stroke-linecap="round"/>
<path d="M48.2439 72.3126C48.0187 71.5867 47.6752 70.894 47.4376 70.1696C46.9757 68.7617 46.6126 67.3091 46.4245 65.839C46.1621 63.7886 46.2761 61.7393 46.5037 59.6934C46.6459 58.4157 46.9134 57.1811 47.217 55.9336C47.3211 55.5059 47.4996 55.0393 47.4996 54.5938" stroke="white" stroke-width="3" stroke-linecap="round"/>
<path d="M47.502 54.5332C47.0813 55.2772 46.8458 56.1069 46.5992 56.919C46.1511 58.3945 45.7704 59.9284 45.5551 61.4546C45.0317 65.1659 45.5312 69.0262 45.8756 72.7306C45.9283 73.2978 45.8597 74.0551 46.0754 74.59" stroke="white" stroke-width="3" stroke-linecap="round"/>
<path d="M45.0783 71.1447C44.961 70.8472 44.9365 70.5086 44.8923 70.1945C44.7757 69.366 44.7066 68.5279 44.6717 67.6925C44.5581 64.9666 44.6218 62.1358 45.2024 59.462C45.4439 58.3495 45.9968 57.311 46.3809 56.2422C46.5956 55.6448 46.7049 54.991 46.9391 54.4102" stroke="white" stroke-width="3" stroke-linecap="round"/>
<path d="M46.8804 54.4102C45.327 56.0665 43.8255 57.8443 43.114 60.0293C42.4248 62.146 42.2222 64.4068 42.4283 66.6124C42.6344 68.8187 42.942 71.0365 43.3415 73.216C43.4223 73.6572 43.528 74.0962 43.5792 74.5421C43.6006 74.7279 43.5377 74.082 43.531 73.9748" stroke="white" stroke-width="3" stroke-linecap="round"/>
<path d="M42.1641 59.2705C42.3521 58.0271 42.9843 56.8403 43.4976 55.7056C43.7603 55.1248 44.122 54.3753 44.5831 53.918" stroke="white" stroke-width="3" stroke-linecap="round"/>
<path d="M43.2202 53.4883C42.9491 53.9007 42.5245 54.2116 42.1968 54.5786C41.7559 55.0724 41.4441 55.7183 41.2009 56.3252C40.4021 58.3191 40.1225 60.6125 39.9777 62.734C39.7904 65.477 40.2661 68.2126 41.2354 70.7765" stroke="white" stroke-width="3" stroke-linecap="round"/>
<path d="M40.7382 63.6387C40.6895 64.2498 40.4931 64.8396 40.4281 65.4502C40.3173 66.4903 40.3105 67.5905 40.4384 68.6289C40.6752 70.552 41.1 72.447 41.4825 74.3438" stroke="white" stroke-width="3" stroke-linecap="round"/>
<path d="M41.0509 74.0988C40.7676 73.9382 40.5595 73.7147 40.3961 73.4323C39.7724 72.354 39.3244 71.1042 39.0178 69.9015C38.549 68.0625 38.5922 66.1436 38.7869 64.272C38.9465 62.7375 39.2196 61.0829 39.769 59.6338C40.2397 58.3923 40.8597 57.2085 41.5471 56.0723" stroke="white" stroke-width="3" stroke-linecap="round"/>
<path d="M40.1183 54.5938C39.7019 57.049 39.0421 59.4232 38.9226 61.9253C38.8414 63.6251 39.0798 65.3338 39.25 67.0216" stroke="white" stroke-width="3" stroke-linecap="round"/>
<path d="M37.9503 58.7173C38.3099 57.4096 38.4671 56.0359 38.605 54.6909C38.6386 54.363 38.6472 54.033 38.6946 53.7065C38.7086 53.6105 38.783 53.3309 38.7429 53.4194C38.3761 54.2278 38.122 55.1243 37.8331 55.9624C37.3288 57.4255 37.0882 58.9407 36.8683 60.4673C36.6587 61.9225 36.4486 63.4025 36.4065 64.8731C36.3398 67.2071 36.6963 69.5266 37.0819 71.8219" stroke="white" stroke-width="3" stroke-linecap="round"/>
<path d="M36.8962 71.0822C36.6581 70.6099 36.5432 70.0176 36.4034 69.5065C36.144 68.5575 35.9147 67.5694 35.7315 66.6046C35.1257 63.4152 34.9861 60.0458 35.3111 56.8223C35.416 55.781 36.1782 55.0064 36.6343 54.1016C36.725 53.9215 36.8343 53.7016 37.0202 53.6094" stroke="white" stroke-width="3" stroke-linecap="round"/>
<path d="M36.1485 54.7793C35.3767 55.9775 34.6259 57.2159 34.1086 58.5459C33.7357 59.5045 33.5023 60.5604 33.2747 61.5606C32.9406 63.0286 32.7523 64.565 32.6544 66.0655C32.5539 67.6054 32.5535 69.2449 33.0472 70.714" stroke="white" stroke-width="3" stroke-linecap="round"/>
<path d="M33.9766 71.9453C34.26 72.1952 34.3371 71.1241 34.3487 71.0156C34.4403 70.1637 34.2247 69.3459 34.2247 68.5" stroke="white" stroke-width="3" stroke-linecap="round"/>
<path d="M34.1676 71.5147C32.9618 70.0107 31.9742 68.3697 30.9353 66.7535C29.7039 64.8378 28.4937 62.9043 27.4688 60.8711" stroke="white" stroke-width="3" stroke-linecap="round"/>
<path d="M30.6901 67.4541C30.6494 67.5935 30.5725 67.9869 30.4075 68.0386C30.1822 68.1092 29.7218 67.3243 29.6287 67.1978C29.0583 66.4224 28.4248 65.652 27.9609 64.8086" stroke="white" stroke-width="3" stroke-linecap="round"/>
<path d="M31.9968 66.8985C31.9177 65.8941 31.4423 64.9339 31.0698 64.0103C30.4061 62.3644 29.8078 60.6865 29.2918 58.9893C28.8107 57.4072 28.4064 55.8404 28.3993 54.1836C28.3974 53.7461 28.3993 53.3086 28.3993 52.8711" stroke="white" stroke-width="3" stroke-linecap="round"/>
<path d="M31.8695 62.0391C31.7895 61.5891 31.6367 61.1527 31.5594 60.6993C31.3068 59.2165 31.3287 57.6795 31.3148 56.1807C31.3038 55.0076 31.3293 53.8502 31.4664 52.6841C31.5165 52.2572 31.4905 51.5937 31.6835 51.2109" stroke="white" stroke-width="3" stroke-linecap="round"/>
<path d="M34.0417 58.3477C33.5876 56.3874 33.5474 54.2677 33.4593 52.2671C33.3968 50.8486 33.4614 49.4285 33.3594 48.0117" stroke="white" stroke-width="3" stroke-linecap="round"/>
<path d="M36.0892 54.8408C35.6093 54.1951 35.1232 53.5481 34.7798 52.8174C34.6772 52.599 34.6237 52.3777 34.4766 52.1953" stroke="white" stroke-width="3" stroke-linecap="round"/>
<path d="M49.1764 17.2615C49.2413 21.9821 50.0071 31.8095 52.5511 33.3544C55.731 35.2856 61.8313 39.5341 63.6484 44.362C63.5619 45.6065 63.0903 48.6749 61.8962 50.9923C60.7021 53.3097 61.1824 59.7468 61.1824 63.1585C60.7064 68.3941 56.0295 78.685 41.1292 77.964" stroke="black" stroke-width="1.15"/>
<path d="M41.5193 77.964C26.6189 78.685 21.942 68.3941 21.4661 63.1585C21.4661 59.7468 21.9463 53.3097 20.7522 50.9923C19.5581 48.6749 19.0865 45.6065 19 44.362C20.6846 39.8862 26.0506 35.9083 29.358 33.8132C29.8143 33.5241 30.0935 33.0246 30.0654 32.4852C29.8316 28.0078 28.4548 17.7209 27.6798 17.0002" stroke="black" stroke-width="1.15"/>
<path d="M45.1974 55.3676C43.4322 55.5221 42.4718 54.7883 42.2122 54.402C41.2236 55.1063 38.8808 55.8846 36.9351 54.4745C34.5911 52.7757 34.5774 50.0069 34.4695 48.8501C34.3053 48.1275 33.8049 46.9481 32.4409 45.9161C32.0605 45.6283 32.0899 44.9958 32.5073 44.7651C34.0574 43.9083 34.5481 43.1077 35.0455 42.6043C36.1618 41.4744 37.8138 38.2877 42.2124 38.0953C46.0543 38.1468 47.8861 39.7482 48.4834 40.6416C49.4358 42.0661 51.2876 43.8014 52.8553 44.6897C53.1427 44.8525 53.1269 45.5026 52.8422 45.6702C51.5503 46.4305 50.8156 47.7443 50.7137 48.3511C50.5839 54.402 47.4039 55.1745 45.1974 55.3676Z" fill="#FEE644"/>
<g filter="url(#filter0_f_3012_44882)">
<ellipse cx="45.4753" cy="52.989" rx="0.735668" ry="0.729714" transform="rotate(-180 45.4753 52.989)" fill="#C1A600" fill-opacity="0.7"/>
</g>
<g filter="url(#filter1_f_3012_44882)">
<ellipse cx="39.7096" cy="52.989" rx="0.735668" ry="0.729714" transform="rotate(-180 39.7096 52.989)" fill="#C1A600" fill-opacity="0.7"/>
</g>
<mask id="mask0_3012_44882" style="mask-type:alpha" maskUnits="userSpaceOnUse" x="32" y="38" width="21" height="18">
<path d="M45.1974 55.3676C43.4322 55.5221 42.4718 54.7883 42.2122 54.402C41.2236 55.1063 38.8808 55.8846 36.9351 54.4745C34.5911 52.7757 34.5774 50.0069 34.4695 48.8501C34.3053 48.1275 33.8049 46.9481 32.4409 45.9161C32.0605 45.6283 32.0899 44.9958 32.5073 44.7651C34.0574 43.9083 34.5481 43.1077 35.0455 42.6043C36.1618 41.4744 37.8138 38.2877 42.2124 38.0953C46.0543 38.1468 47.8861 39.7482 48.4834 40.6416C49.2656 41.8116 50.6547 43.1913 51.9947 44.1391C52.48 44.4824 52.4614 45.8769 52.0253 46.281C51.2402 47.0085 50.7917 47.8868 50.7137 48.3511C50.5839 54.402 47.4039 55.1745 45.1974 55.3676Z" fill="#FEE644"/>
<ellipse cx="45.4753" cy="52.989" rx="0.735668" ry="0.729714" transform="rotate(-180 45.4753 52.989)" fill="#C1A600" fill-opacity="0.7"/>
<ellipse cx="39.7096" cy="52.989" rx="0.735668" ry="0.729714" transform="rotate(-180 39.7096 52.989)" fill="#C1A600" fill-opacity="0.7"/>
</mask>
<g mask="url(#mask0_3012_44882)">
<path d="M33.7986 50.1602C36.223 42.4165 47.6878 42.8331 53.1172 44.0093L53.1172 37.3952L29.5558 37.3952L29.5558 50.1602L33.7986 50.1602Z" fill="#EBCF2E" stroke="#EECC37" stroke-width="0.633272"/>
</g>
<ellipse cx="52.8727" cy="59.1801" rx="2.34605" ry="3.05425" transform="rotate(-180 52.8727 59.1801)" fill="black"/>
<ellipse cx="32.3649" cy="59.1801" rx="2.34605" ry="3.05425" transform="rotate(-180 32.3649 59.1801)" fill="black"/>
<path d="M16.4622 72.3339C20.9941 74.7849 24.2737 74.0103 27.6979 74.5233C26.8569 76.9984 29.5501 100.252 29.3566 102.866C29.2018 104.957 30.8811 106.46 31.7401 106.951C37.7178 107.695 47.0621 108.696 52.7477 108.045C54.3133 107.866 55.3702 106.497 55.4361 104.922L56.7021 74.6781C57.8994 74.7573 59.171 74.4897 60.3232 74.0944C62.7126 73.2747 65.3336 71.3567 64.9245 68.864C64.5858 66.8005 61.7845 66.2565 59.892 66.3003L29.9935 67.2849C29.4935 67.2848 27.3988 67.2605 21.7025 67.047C14.5821 66.7801 15.44 71.7811 16.4622 72.3339Z" fill="black" stroke="black" stroke-width="0.463253"/>
<mask id="mask1_3012_44882" style="mask-type:alpha" maskUnits="userSpaceOnUse" x="15" y="66" width="51" height="46">
<path d="M16.4684 72.3347C17.2389 72.8549 24.2799 74.011 27.7041 74.5241C26.8631 76.9991 29.5563 104.252 29.3628 106.866C29.208 108.958 30.8873 110.461 31.7463 110.952C37.7414 111.698 47.1228 109.775 52.8035 108.266C54.3265 107.862 55.3764 106.497 55.4423 104.923L56.7083 74.6788C59.4317 74.8591 62.8561 73.7447 63.7526 72.4152C67.1521 67.3736 62.5995 66.2385 59.8982 66.3011L29.9402 67.9434C29.5699 67.7338 27.405 67.2613 21.7087 67.0478C14.5883 66.7809 15.5052 71.6845 16.4684 72.3347Z" fill="black" stroke="black" stroke-width="0.463253"/>
</mask>
<g mask="url(#mask1_3012_44882)">
<path d="M27.512 74.6693C27.3452 74.937 27.5072 77.5057 27.609 78.7566C27.9861 78.2369 47.1681 78.023 56.7356 79.2837L56.7356 75.2912C48.9217 71.2844 27.7205 74.3347 27.512 74.6693Z" fill="#BA68C8" stroke="#BA68C8" stroke-width="0.463253"/>
</g>
<path d="M15.7615 1.40137C17.1296 6.34639 19.6606 17.3046 18.8397 21.577C18.4428 23.6429 17.4701 24.6821 16.3973 25.1375C14.468 26.3243 3.57856 26.429 1.82932 24.5438C1.09315 23.7505 0.370586 21.577 1.90968 12.6759C3.14095 5.55506 6.02125 6.14849 7.3075 7.33532C8.75795 3.6648 11.0381 4.83896 12.1703 6.14859C12.9911 0.451928 14.9065 0.610169 15.7615 1.40137Z" fill="white"/>
<path d="M12.1703 6.14859C12.9911 0.451928 14.9065 0.610169 15.7615 1.40137C17.1296 6.34639 19.6606 17.3045 18.8397 21.577C18.4428 23.6429 17.4701 24.6821 16.3973 25.1375C14.468 26.3243 3.57856 26.429 1.82932 24.5438C1.09315 23.7505 0.370586 21.577 1.90968 12.6759C3.14095 5.55506 6.02125 6.14849 7.3075 7.33532M12.1703 6.14859C11.3494 11.8452 11.8283 11.2914 12.1703 10.3023M12.1703 6.14859C11.0381 4.83896 8.75795 3.6648 7.3075 7.33532M6.52695 10.3023C6.73922 9.07473 7.00536 8.09992 7.3075 7.33532" stroke="black" stroke-width="1.15"/>
<path d="M63.2385 3.40137C61.8704 8.34639 59.3394 19.3046 60.1603 23.577C60.5572 25.6429 61.5299 26.6821 62.6027 27.1375C64.532 28.3243 75.4214 28.429 77.1707 26.5438C77.9068 25.7505 78.6294 23.577 77.0903 14.6759C75.859 7.55506 72.9787 8.14849 71.6925 9.33532C70.242 5.6648 67.9619 6.83896 66.8297 8.14859C66.0089 2.45193 64.0935 2.61017 63.2385 3.40137Z" fill="white"/>
<path d="M66.8297 8.14859C66.0089 2.45193 64.0935 2.61017 63.2385 3.40137C61.8704 8.34639 59.3394 19.3045 60.1603 23.577C60.5572 25.6429 61.5299 26.6821 62.6027 27.1375C64.532 28.3243 75.4214 28.429 77.1707 26.5438C77.9068 25.7505 78.6294 23.577 77.0903 14.6759C75.859 7.55506 72.9787 8.14849 71.6925 9.33532M66.8297 8.14859C67.6506 13.8452 67.1717 13.2914 66.8297 12.3023M66.8297 8.14859C67.9619 6.83896 70.242 5.6648 71.6925 9.33532M72.4731 12.3023C72.2608 11.0747 71.9946 10.0999 71.6925 9.33532" stroke="black" stroke-width="1.15"/>
<defs>
<filter id="filter0_f_3012_44882" x="44.4889" y="52.0065" width="1.97537" height="1.9656" filterUnits="userSpaceOnUse" color-interpolation-filters="sRGB">
<feFlood flood-opacity="0" result="BackgroundImageFix"/>
<feBlend mode="normal" in="SourceGraphic" in2="BackgroundImageFix" result="shape"/>
<feGaussianBlur stdDeviation="0.126654" result="effect1_foregroundBlur_3012_44882"/>
</filter>
<filter id="filter1_f_3012_44882" x="38.7233" y="52.0065" width="1.97537" height="1.9656" filterUnits="userSpaceOnUse" color-interpolation-filters="sRGB">
<feFlood flood-opacity="0" result="BackgroundImageFix"/>
<feBlend mode="normal" in="SourceGraphic" in2="BackgroundImageFix" result="shape"/>
<feGaussianBlur stdDeviation="0.126654" result="effect1_foregroundBlur_3012_44882"/>
</filter>
</defs>
</svg>
