<svg width="1440" height="302" viewBox="0 0 1440 302" fill="none" xmlns="http://www.w3.org/2000/svg">
<g clip-path="url(#clip0_3050_7230)">
<path d="M1441.69 54.1988C1373.22 -2.13679 289.67 -18.5264 -1.68848 54.1988V195.822H1441.69V54.1988Z" fill="#77A85C"/>
<path d="M159.56 70.1322C87.9411 61.083 -17.7316 99.758 -61.6156 120.227C-105.384 272.724 95.701 275.995 243.429 265.389C276.24 263.033 310.254 267.048 342.863 271.374C568.65 301.331 1475.81 336.391 1499.02 231.317C1524.99 113.805 1490.98 112.91 1421.14 70.1322C1352.1 27.846 854.062 82.7407 806.288 89.9051C735.642 100.5 249.084 81.4438 159.56 70.1322Z" fill="#BFF0FF"/>
<path d="M187.77 125.808C187.821 126.692 187.398 128.545 185.294 128.89C182.664 129.321 181.04 128.458 180.576 128.027M179.582 125.5C179.604 125.213 179.833 124.563 180.576 124.268" stroke="#0FC0F6" stroke-linecap="round"/>
<path d="M1389.39 127.551C1389.05 128.369 1388.84 130.258 1390.72 131.274C1393.06 132.544 1394.88 132.261 1395.46 132.006M1397.22 129.945C1397.3 129.666 1397.29 128.977 1396.69 128.454" stroke="#0FC0F6" stroke-linecap="round"/>
<path d="M153.027 107.993C153.432 108.78 153.795 110.646 152.011 111.813C149.782 113.273 147.489 111.315 146.89 111.109M149.083 106.58C148.829 106.532 148.296 106.592 148.195 107.215" stroke="#0FC0F6" stroke-linecap="round"/>
<path d="M1428.05 122.113C1427.41 122.723 1426.46 124.367 1427.76 126.055C1429.39 128.164 1432.2 127.067 1432.83 127.068M1432.24 122.071C1432.5 122.109 1432.98 122.34 1432.87 122.962" stroke="#0FC0F6" stroke-linecap="round"/>
<path d="M175.201 95.2108C175.989 95.6125 177.374 96.9136 176.61 98.9037C175.656 101.391 172.248 99.9789 171.641 100.162M171.641 102.038C170.889 102.007 169.348 101.766 169.205 101.053" stroke="#0FC0F6" stroke-linecap="round"/>
<path d="M1411.29 102.766C1410.42 102.887 1408.68 103.662 1408.75 105.793C1408.84 108.456 1412.52 108.239 1413.03 108.61M1412.42 110.383C1413.14 110.6 1414.67 110.878 1415.04 110.251" stroke="#0FC0F6" stroke-linecap="round"/>
<path d="M499.431 140.093C499.431 140.093 499.43 140.094 499.428 140.097C499.429 140.094 499.43 140.093 499.431 140.093ZM498.884 139.988C499.077 140.064 499.214 140.133 499.306 140.191C499.214 140.25 499.077 140.319 498.884 140.394C498.379 140.593 497.605 140.795 496.57 140.991C494.51 141.383 491.51 141.739 487.784 142.038C480.337 142.637 470.039 143.008 458.658 143.008C447.277 143.008 436.979 142.637 429.531 142.038C425.805 141.739 422.806 141.383 420.745 140.991C419.711 140.795 418.937 140.593 418.431 140.394C418.238 140.319 418.101 140.25 418.009 140.191C418.101 140.133 418.238 140.064 418.431 139.988C418.937 139.79 419.711 139.588 420.745 139.392C422.806 139 425.805 138.644 429.531 138.345C436.979 137.746 447.277 137.375 458.658 137.375C470.039 137.375 480.337 137.746 487.784 138.345C491.51 138.644 494.51 139 496.57 139.392C497.605 139.588 498.379 139.79 498.884 139.988ZM417.885 140.093C417.885 140.093 417.886 140.094 417.888 140.097C417.886 140.094 417.885 140.093 417.885 140.093ZM417.885 140.29C417.885 140.29 417.886 140.289 417.888 140.286C417.886 140.289 417.885 140.29 417.885 140.29ZM499.428 140.286C499.43 140.289 499.431 140.29 499.431 140.29C499.43 140.29 499.429 140.289 499.428 140.286Z" fill="#A1E9FF" stroke="#A1E9FF"/>
<path d="M837.734 102.044C837.734 102.044 837.733 102.045 837.731 102.047C837.733 102.045 837.734 102.044 837.734 102.044ZM837.372 102.162C837.404 102.175 837.434 102.187 837.462 102.199C837.434 102.211 837.404 102.223 837.372 102.236C837.003 102.38 836.431 102.53 835.656 102.677C834.115 102.97 831.867 103.237 829.069 103.462C823.479 103.912 815.747 104.19 807.2 104.19C798.652 104.19 790.92 103.912 785.33 103.462C782.533 103.237 780.285 102.97 778.743 102.677C777.968 102.53 777.396 102.38 777.027 102.236C776.995 102.223 776.965 102.211 776.938 102.199C776.965 102.187 776.995 102.175 777.027 102.162C777.396 102.017 777.968 101.868 778.743 101.72C780.285 101.427 782.533 101.161 785.33 100.936C790.92 100.486 798.652 100.208 807.2 100.208C815.747 100.208 823.479 100.486 829.069 100.936C831.867 101.161 834.115 101.427 835.656 101.72C836.431 101.868 837.003 102.017 837.372 102.162ZM776.665 102.044C776.665 102.044 776.667 102.045 776.669 102.047C776.666 102.045 776.665 102.044 776.665 102.044ZM776.665 102.354C776.665 102.354 776.666 102.353 776.669 102.35C776.667 102.353 776.665 102.354 776.665 102.354ZM837.731 102.35C837.733 102.353 837.734 102.354 837.734 102.354C837.734 102.354 837.733 102.353 837.731 102.35Z" fill="#A1E9FF" stroke="#A1E9FF"/>
<path d="M57.244 177.603C57.2441 177.603 57.2433 177.604 57.2413 177.607C57.2429 177.604 57.2439 177.603 57.244 177.603ZM56.6979 177.498C56.8909 177.574 57.0279 177.643 57.1199 177.701C57.0279 177.759 56.8909 177.828 56.6979 177.904C56.1923 178.103 55.4183 178.304 54.384 178.501C52.3231 178.893 49.3237 179.248 45.5976 179.548C38.1503 180.147 27.8524 180.518 16.4712 180.518C5.08998 180.518 -5.20791 180.147 -12.6552 179.548C-16.3813 179.248 -19.3807 178.893 -21.4416 178.501C-22.4759 178.304 -23.2499 178.103 -23.7555 177.904C-23.9485 177.828 -24.0855 177.759 -24.1775 177.701C-24.0855 177.643 -23.9485 177.574 -23.7555 177.498C-23.2499 177.3 -22.4759 177.098 -21.4416 176.902C-19.3807 176.51 -16.3813 176.154 -12.6552 175.855C-5.20791 175.256 5.08998 174.885 16.4712 174.885C27.8524 174.885 38.1503 175.256 45.5976 175.855C49.3237 176.154 52.3231 176.51 54.384 176.902C55.4183 177.098 56.1923 177.3 56.6979 177.498ZM-24.3016 177.603C-24.3015 177.603 -24.3004 177.604 -24.2989 177.607C-24.3009 177.604 -24.3017 177.603 -24.3016 177.603ZM-24.3016 177.8C-24.3017 177.8 -24.3009 177.798 -24.2989 177.796C-24.3004 177.798 -24.3015 177.8 -24.3016 177.8ZM57.2413 177.796C57.2434 177.798 57.2441 177.8 57.244 177.8C57.2439 177.8 57.2429 177.798 57.2413 177.796Z" fill="#A1E9FF" stroke="#A1E9FF"/>
<path d="M308.228 151.428C308.228 151.428 308.227 151.429 308.224 151.432C308.226 151.429 308.227 151.428 308.228 151.428ZM307.864 151.545C307.897 151.558 307.928 151.57 307.956 151.583C307.928 151.595 307.897 151.608 307.864 151.621C307.494 151.766 306.92 151.916 306.143 152.064C304.598 152.358 302.344 152.625 299.539 152.85C293.935 153.301 286.182 153.58 277.613 153.58C269.044 153.58 261.291 153.301 255.687 152.85C252.882 152.625 250.628 152.358 249.082 152.064C248.306 151.916 247.732 151.766 247.362 151.621C247.329 151.608 247.298 151.595 247.27 151.583C247.298 151.57 247.329 151.558 247.362 151.545C247.732 151.399 248.306 151.249 249.082 151.102C250.628 150.808 252.882 150.54 255.687 150.315C261.291 149.864 269.044 149.585 277.613 149.585C286.182 149.585 293.935 149.864 299.539 150.315C302.344 150.54 304.598 150.808 306.143 151.102C306.92 151.249 307.494 151.399 307.864 151.545ZM246.998 151.428C246.999 151.428 247 151.429 247.002 151.432C246.999 151.429 246.998 151.428 246.998 151.428ZM246.998 151.737C246.998 151.737 246.999 151.736 247.002 151.734C247 151.736 246.999 151.737 246.998 151.737ZM308.224 151.734C308.227 151.736 308.228 151.737 308.228 151.737C308.227 151.737 308.226 151.736 308.224 151.734Z" fill="#A1E9FF" stroke="#A1E9FF"/>
<path d="M1231.03 229.857C1231.03 229.857 1231.03 229.858 1231.02 229.86C1231.02 229.858 1231.03 229.857 1231.03 229.857ZM1230.66 229.973C1230.7 229.986 1230.73 229.999 1230.76 230.011C1230.73 230.024 1230.7 230.036 1230.66 230.049C1230.29 230.195 1229.72 230.345 1228.94 230.492C1227.4 230.786 1225.14 231.054 1222.34 231.279C1216.73 231.73 1208.98 232.009 1200.41 232.009C1191.84 232.009 1184.09 231.73 1178.49 231.279C1175.68 231.054 1173.43 230.786 1171.88 230.492C1171.1 230.345 1170.53 230.195 1170.16 230.049C1170.13 230.036 1170.1 230.024 1170.07 230.011C1170.1 229.999 1170.13 229.986 1170.16 229.973C1170.53 229.828 1171.1 229.678 1171.88 229.53C1173.43 229.237 1175.68 228.969 1178.49 228.744C1184.09 228.293 1191.84 228.014 1200.41 228.014C1208.98 228.014 1216.73 228.293 1222.34 228.744C1225.14 228.969 1227.4 229.237 1228.94 229.53C1229.72 229.678 1230.29 229.828 1230.66 229.973ZM1169.8 229.857C1169.8 229.857 1169.8 229.858 1169.8 229.86C1169.8 229.858 1169.8 229.857 1169.8 229.857ZM1169.8 230.166C1169.8 230.166 1169.8 230.165 1169.8 230.162C1169.8 230.165 1169.8 230.166 1169.8 230.166ZM1231.02 230.162C1231.03 230.165 1231.03 230.166 1231.03 230.166C1231.03 230.166 1231.02 230.165 1231.02 230.162Z" fill="#A1E9FF" stroke="#A1E9FF"/>
<path d="M435.589 234.852C435.589 234.853 435.588 234.854 435.585 234.856C435.587 234.854 435.589 234.852 435.589 234.852ZM435.225 234.969C435.259 234.982 435.289 234.995 435.318 235.007C435.289 235.019 435.259 235.032 435.225 235.045C434.855 235.19 434.282 235.34 433.505 235.488C431.959 235.782 429.705 236.049 426.901 236.275C421.296 236.725 413.544 237.005 404.974 237.005C396.405 237.005 388.653 236.725 383.048 236.275C380.243 236.049 377.989 235.782 376.444 235.488C375.667 235.34 375.093 235.19 374.723 235.045C374.69 235.032 374.659 235.019 374.631 235.007C374.659 234.995 374.69 234.982 374.723 234.969C375.093 234.824 375.667 234.674 376.444 234.526C377.989 234.232 380.243 233.965 383.048 233.739C388.653 233.289 396.405 233.009 404.974 233.009C413.544 233.009 421.296 233.289 426.901 233.739C429.705 233.965 431.959 234.232 433.505 234.526C434.282 234.674 434.855 234.824 435.225 234.969ZM374.36 234.852C374.36 234.852 374.361 234.854 374.363 234.856C374.361 234.854 374.36 234.853 374.36 234.852ZM374.36 235.162C374.36 235.162 374.361 235.16 374.363 235.158C374.361 235.16 374.36 235.162 374.36 235.162ZM435.585 235.158C435.588 235.16 435.589 235.162 435.589 235.162C435.589 235.162 435.587 235.16 435.585 235.158Z" fill="#A1E9FF" stroke="#A1E9FF"/>
<path d="M1404.5 96.958C1404.5 96.958 1404.5 96.9592 1404.49 96.9616C1404.49 96.9592 1404.5 96.958 1404.5 96.958ZM1404.13 97.0745C1404.17 97.0876 1404.2 97.1003 1404.22 97.1125C1404.2 97.1247 1404.17 97.1374 1404.13 97.1505C1403.76 97.2959 1403.19 97.4459 1402.41 97.5935C1400.87 97.8873 1398.61 98.1548 1395.81 98.3803C1390.2 98.8309 1382.45 99.1102 1373.88 99.1102C1365.31 99.1102 1357.56 98.8309 1351.96 98.3803C1349.15 98.1548 1346.9 97.8873 1345.35 97.5935C1344.57 97.4459 1344 97.2959 1343.63 97.1505C1343.6 97.1374 1343.57 97.1247 1343.54 97.1125C1343.57 97.1002 1343.6 97.0876 1343.63 97.0745C1344 96.9291 1344.57 96.7791 1345.35 96.6315C1346.9 96.3376 1349.15 96.0702 1351.96 95.8447C1357.56 95.3941 1365.31 95.1147 1373.88 95.1147C1382.45 95.1147 1390.2 95.3941 1395.81 95.8447C1398.61 96.0702 1400.87 96.3376 1402.41 96.6315C1403.19 96.7791 1403.76 96.9291 1404.13 97.0745ZM1343.27 96.958C1343.27 96.958 1343.27 96.9592 1343.27 96.9616C1343.27 96.9592 1343.27 96.958 1343.27 96.958ZM1343.27 97.267C1343.27 97.267 1343.27 97.2658 1343.27 97.2634C1343.27 97.2658 1343.27 97.267 1343.27 97.267ZM1404.49 97.2634C1404.5 97.2658 1404.5 97.267 1404.5 97.267C1404.5 97.267 1404.49 97.2658 1404.49 97.2634Z" fill="#A1E9FF" stroke="#A1E9FF"/>
<path d="M200.513 171.67C200.513 171.67 200.512 171.671 200.51 171.672C200.512 171.671 200.513 171.67 200.513 171.67ZM199.131 171.699C199.464 171.762 199.74 171.826 199.96 171.887C199.74 171.949 199.464 172.012 199.131 172.076C198.059 172.279 196.49 172.466 194.532 172.623C190.62 172.938 185.206 173.133 179.219 173.133C173.232 173.133 167.818 172.938 163.906 172.623C161.948 172.466 160.379 172.279 159.306 172.076C158.974 172.012 158.698 171.949 158.478 171.887C158.698 171.826 158.974 171.762 159.306 171.699C160.379 171.495 161.948 171.309 163.906 171.151C167.818 170.837 173.232 170.642 179.219 170.642C185.206 170.642 190.62 170.837 194.532 171.151C196.49 171.309 198.059 171.495 199.131 171.699ZM157.925 171.67C157.925 171.67 157.926 171.671 157.928 171.672C157.926 171.671 157.925 171.67 157.925 171.67ZM157.925 172.105C157.925 172.105 157.926 172.104 157.928 172.102C157.926 172.104 157.925 172.105 157.925 172.105ZM200.51 172.102C200.512 172.104 200.513 172.105 200.513 172.105C200.513 172.105 200.512 172.104 200.51 172.102Z" fill="#A1E9FF" stroke="#A1E9FF"/>
<path d="M743.843 158.4C743.843 158.4 743.842 158.4 743.84 158.402C743.842 158.4 743.843 158.4 743.843 158.4ZM742.461 158.429C742.794 158.492 743.07 158.555 743.29 158.617C743.07 158.679 742.794 158.742 742.461 158.805C741.389 159.009 739.82 159.195 737.862 159.353C733.95 159.667 728.536 159.863 722.549 159.863C716.562 159.863 711.148 159.667 707.236 159.353C705.278 159.195 703.709 159.009 702.637 158.805C702.304 158.742 702.028 158.679 701.808 158.617C702.028 158.555 702.304 158.492 702.637 158.429C703.709 158.225 705.278 158.038 707.236 157.881C711.148 157.566 716.562 157.371 722.549 157.371C728.536 157.371 733.95 157.566 737.862 157.881C739.82 158.038 741.389 158.225 742.461 158.429ZM701.255 158.4C701.255 158.4 701.256 158.4 701.258 158.402C701.256 158.4 701.255 158.4 701.255 158.4ZM701.255 158.834C701.255 158.834 701.256 158.833 701.258 158.832C701.256 158.833 701.255 158.834 701.255 158.834ZM743.84 158.832C743.842 158.833 743.843 158.834 743.843 158.834C743.843 158.834 743.842 158.833 743.84 158.832Z" fill="#A1E9FF" stroke="#A1E9FF"/>
<path d="M959.902 217.213C959.903 217.213 959.902 217.213 959.9 217.215C959.901 217.213 959.902 217.213 959.902 217.213ZM958.521 217.241C958.854 217.305 959.129 217.368 959.349 217.43C959.129 217.492 958.854 217.555 958.521 217.618C957.449 217.822 955.88 218.008 953.921 218.166C950.009 218.48 944.595 218.676 938.609 218.676C932.622 218.676 927.208 218.48 923.296 218.166C921.337 218.008 919.768 217.822 918.696 217.618C918.363 217.555 918.088 217.492 917.868 217.43C918.088 217.368 918.363 217.305 918.696 217.241C919.768 217.038 921.337 216.851 923.296 216.694C927.208 216.379 932.622 216.184 938.609 216.184C944.595 216.184 950.009 216.379 953.921 216.694C955.88 216.851 957.449 217.038 958.521 217.241ZM917.315 217.213C917.315 217.213 917.316 217.213 917.317 217.215C917.315 217.213 917.315 217.213 917.315 217.213ZM917.315 217.647C917.315 217.647 917.315 217.646 917.317 217.645C917.316 217.646 917.315 217.647 917.315 217.647ZM959.9 217.645C959.902 217.646 959.903 217.647 959.902 217.647C959.902 217.647 959.902 217.646 959.9 217.645Z" fill="#A1E9FF" stroke="#A1E9FF"/>
<path d="M116.265 104.615C116.265 104.615 116.264 104.617 116.261 104.619C116.263 104.617 116.265 104.615 116.265 104.615ZM115.929 104.767C115.939 104.771 115.95 104.776 115.96 104.78C115.95 104.784 115.939 104.788 115.929 104.792C115.579 104.929 115.036 105.072 114.299 105.212C112.833 105.49 110.694 105.744 108.032 105.958C102.711 106.386 95.3511 106.651 87.2152 106.651C79.0792 106.651 71.7193 106.386 66.3988 105.958C63.736 105.744 61.5972 105.49 60.131 105.212C59.394 105.072 58.8509 104.929 58.5018 104.792C58.491 104.788 58.4805 104.784 58.4703 104.78C58.4805 104.776 58.491 104.771 58.5018 104.767C58.8509 104.63 59.394 104.488 60.131 104.348C61.5972 104.069 63.736 103.815 66.3988 103.601C71.7193 103.173 79.0792 102.908 87.2152 102.908C95.3511 102.908 102.711 103.173 108.032 103.601C110.694 103.815 112.833 104.069 114.299 104.348C115.036 104.488 115.579 104.63 115.929 104.767ZM58.1656 104.615C58.1657 104.615 58.1669 104.617 58.169 104.619C58.1665 104.617 58.1655 104.615 58.1656 104.615ZM58.1656 104.944C58.1655 104.944 58.1665 104.943 58.169 104.941C58.1669 104.943 58.1657 104.944 58.1656 104.944ZM116.261 104.941C116.264 104.943 116.265 104.944 116.265 104.944C116.265 104.944 116.263 104.943 116.261 104.941Z" fill="#A1E9FF" stroke="#A1E9FF"/>
<path d="M362.562 116.638C362.584 116.642 362.605 116.647 362.626 116.651C362.605 116.655 362.584 116.66 362.562 116.664C361.766 116.822 360.576 116.977 359.021 117.126C355.917 117.423 351.416 117.692 345.844 117.918C334.703 118.369 319.306 118.649 302.296 118.649C285.286 118.649 269.89 118.369 258.748 117.918C253.176 117.692 248.675 117.423 245.571 117.126C244.017 116.977 242.826 116.822 242.031 116.664C242.009 116.66 241.987 116.655 241.966 116.651C241.987 116.647 242.009 116.642 242.031 116.638C242.826 116.481 244.017 116.326 245.571 116.177C248.675 115.879 253.176 115.61 258.748 115.384C269.89 114.933 285.286 114.653 302.296 114.653C319.306 114.653 334.703 114.933 345.844 115.384C351.416 115.61 355.917 115.879 359.021 116.177C360.576 116.326 361.766 116.481 362.562 116.638Z" fill="#A1E9FF" stroke="#A1E9FF"/>
<path d="M823.383 256.428C823.405 256.433 823.427 256.437 823.448 256.441C823.427 256.445 823.405 256.45 823.383 256.454C822.588 256.612 821.397 256.767 819.843 256.916C816.738 257.213 812.238 257.482 806.666 257.708C795.524 258.159 780.128 258.439 763.118 258.439C746.108 258.439 730.711 258.159 719.57 257.708C713.998 257.482 709.497 257.213 706.393 256.916C704.838 256.767 703.648 256.612 702.852 256.454C702.83 256.45 702.809 256.445 702.788 256.441C702.809 256.437 702.83 256.433 702.852 256.428C703.648 256.271 704.838 256.116 706.393 255.967C709.497 255.669 713.998 255.4 719.57 255.175C730.711 254.723 746.108 254.443 763.118 254.443C780.128 254.443 795.524 254.723 806.666 255.175C812.238 255.4 816.738 255.669 819.843 255.967C821.397 256.116 822.588 256.271 823.383 256.428Z" fill="#A1E9FF" stroke="#A1E9FF"/>
<path d="M218.288 221.661C218.309 221.665 218.331 221.669 218.352 221.674C218.331 221.678 218.309 221.682 218.288 221.686C217.492 221.844 216.302 221.999 214.747 222.148C211.643 222.446 207.142 222.714 201.57 222.94C190.428 223.392 175.032 223.671 158.022 223.671C141.012 223.671 125.615 223.392 114.474 222.94C108.902 222.714 104.401 222.446 101.297 222.148C99.7423 221.999 98.5518 221.844 97.7562 221.686C97.7344 221.682 97.713 221.678 97.6919 221.674C97.713 221.669 97.7344 221.665 97.7562 221.661C98.5518 221.503 99.7423 221.348 101.297 221.199C104.401 220.902 108.902 220.633 114.474 220.407C125.615 219.955 141.012 219.676 158.022 219.676C175.032 219.676 190.428 219.955 201.57 220.407C207.142 220.633 211.643 220.902 214.747 221.199C216.302 221.348 217.492 221.503 218.288 221.661Z" fill="#A1E9FF" stroke="#A1E9FF"/>
<path d="M183.938 126.637C184.754 118.07 187.594 98.9459 192.416 90.98" stroke="#424242" stroke-linecap="round"/>
<path d="M1392.74 129.591C1394.77 121.23 1398.36 102.232 1396.42 93.1252" stroke="#424242" stroke-linecap="round"/>
<path d="M149.622 109.901C150.439 101.335 153.63 84.4385 153.63 72.4774" stroke="#424242" stroke-linecap="round"/>
<path d="M1430.64 125.032C1432.68 116.671 1435.21 99.6623 1439.13 88.3625" stroke="#424242" stroke-linecap="round"/>
<path d="M173.224 98.6726C174.041 90.1061 177.232 73.2099 177.232 61.2488" stroke="#424242" stroke-linecap="round"/>
<path d="M1412.03 106.685C1414.07 98.3241 1416.59 81.3157 1420.51 70.0158" stroke="#424242" stroke-linecap="round"/>
<rect x="196.105" y="81.3096" width="3.97581" height="14.2848" rx="1.9879" transform="rotate(31.9479 196.105 81.3096)" fill="#F7DD75"/>
<rect width="3.97581" height="14.2848" rx="1.9879" transform="matrix(-0.975119 0.221683 0.221683 0.975119 1396.1 82.7793)" fill="#F7DD75"/>
<rect x="151.642" y="63.8486" width="3.97581" height="14.2848" rx="1.9879" fill="#F7DD75"/>
<rect width="3.97581" height="14.2848" rx="1.9879" transform="matrix(-0.94472 -0.327877 -0.327877 0.94472 1443.83 80.8628)" fill="#F7DD75"/>
<rect x="175.243" y="52.6201" width="3.97581" height="14.2848" rx="1.9879" fill="#F7DD75"/>
<rect width="3.97581" height="14.2848" rx="1.9879" transform="matrix(-0.94472 -0.327877 -0.327877 0.94472 1425.22 62.5161)" fill="#F7DD75"/>
<path d="M448.573 18.0417C449.707 14.3035 452.613 8.28289 456.075 6.82715" stroke="#699153" stroke-linecap="round"/>
<path d="M323.953 55.3269C325.087 51.5887 327.993 45.5681 331.455 44.1123" stroke="#699153" stroke-linecap="round"/>
<path d="M683.97 70.2732C685.104 66.535 688.01 60.5143 691.471 59.0586" stroke="#699153" stroke-linecap="round"/>
<path d="M627.869 11.2146C629.003 7.4764 631.909 1.45575 635.371 0" stroke="#699153" stroke-linecap="round"/>
<path d="M316.451 55.3269C317.585 51.5887 320.491 45.5681 323.953 44.1123" stroke="#699153" stroke-linecap="round"/>
<path d="M676.468 70.2736C677.602 66.5355 680.508 60.5148 683.969 59.0591" stroke="#699153" stroke-linecap="round"/>
<path d="M620.368 11.2146C621.502 7.4764 624.408 1.45575 627.87 0" stroke="#699153" stroke-linecap="round"/>
<path d="M222.322 38.5046C223.456 34.7664 226.362 28.7458 229.824 27.29" stroke="#699153" stroke-linecap="round"/>
<path d="M732.567 24.5398C733.702 20.8016 736.607 14.7809 740.069 13.3252" stroke="#699153" stroke-linecap="round"/>
<path d="M1112.29 43.6013C1113.43 39.8631 1116.33 33.8425 1119.79 32.3867" stroke="#699153" stroke-linecap="round"/>
<path d="M896.86 68.7458C897.994 65.0077 900.9 58.987 904.362 57.5312" stroke="#699153" stroke-linecap="round"/>
<path d="M1231.48 27.5944C1232.61 23.8563 1235.52 17.8356 1238.98 16.3799" stroke="#699153" stroke-linecap="round"/>
<path d="M16.4736 75.0632C17.6078 71.325 20.5136 65.3044 23.9753 63.8486" stroke="#699153" stroke-linecap="round"/>
<path d="M72.208 45.6394C73.3421 41.9012 76.248 35.8806 79.7097 34.4248" stroke="#699153" stroke-linecap="round"/>
<path d="M538.136 79.9607C539.27 76.2225 542.176 70.2018 545.637 68.7461" stroke="#699153" stroke-linecap="round"/>
<path d="M451.975 18.0416C452.594 15.3217 454.183 10.941 456.075 9.88184" stroke="#699153" stroke-linecap="round"/>
<path d="M327.354 55.3268C327.974 52.6069 329.563 48.2262 331.455 47.167" stroke="#699153" stroke-linecap="round"/>
<path d="M687.371 70.2736C687.991 67.5537 689.579 63.173 691.471 62.1138" stroke="#699153" stroke-linecap="round"/>
<path d="M631.271 11.2145C631.891 8.49457 633.48 4.1139 635.372 3.05469" stroke="#699153" stroke-linecap="round"/>
<path d="M233.226 38.5045C233.845 35.7846 235.434 31.4039 237.326 30.3447" stroke="#699153" stroke-linecap="round"/>
<path d="M743.471 24.5397C744.091 21.8198 745.679 17.4391 747.571 16.3799" stroke="#699153" stroke-linecap="round"/>
<path d="M1123.2 43.6012C1123.82 40.8813 1125.4 36.5006 1127.3 35.4414" stroke="#699153" stroke-linecap="round"/>
<path d="M907.764 68.7462C908.384 66.0263 909.972 61.6456 911.864 60.5864" stroke="#699153" stroke-linecap="round"/>
<path d="M1242.38 27.5944C1243 24.8745 1244.59 20.4938 1246.48 19.4346" stroke="#699153" stroke-linecap="round"/>
<path d="M27.376 75.0631C27.9958 72.3432 29.584 67.9625 31.4761 66.9033" stroke="#699153" stroke-linecap="round"/>
<path d="M79.7158 44.112C80.3357 41.392 81.9239 37.0114 83.8159 35.9521" stroke="#699153" stroke-linecap="round"/>
<path d="M545.642 78.4332C546.261 75.7133 547.85 71.3326 549.742 70.2734" stroke="#699153" stroke-linecap="round"/>
<path d="M319.853 55.3268C320.472 52.6069 322.061 48.2262 323.953 47.167" stroke="#699153" stroke-linecap="round"/>
<path d="M679.869 70.2731C680.489 67.5532 682.077 63.1725 683.969 62.1133" stroke="#699153" stroke-linecap="round"/>
<path d="M623.77 11.2145C624.389 8.49457 625.978 4.1139 627.87 3.05469" stroke="#699153" stroke-linecap="round"/>
<path d="M225.724 38.5045C226.344 35.7846 227.932 31.4039 229.824 30.3447" stroke="#699153" stroke-linecap="round"/>
<path d="M735.97 24.5397C736.59 21.8198 738.178 17.4391 740.07 16.3799" stroke="#699153" stroke-linecap="round"/>
<path d="M1115.69 43.6012C1116.31 40.8813 1117.9 36.5006 1119.79 35.4414" stroke="#699153" stroke-linecap="round"/>
<path d="M900.262 68.7457C900.882 66.0258 902.47 61.6451 904.362 60.5859" stroke="#699153" stroke-linecap="round"/>
<path d="M1234.88 27.5944C1235.5 24.8745 1237.09 20.4938 1238.98 19.4346" stroke="#699153" stroke-linecap="round"/>
<path d="M19.874 75.0631C20.4939 72.3432 22.0821 67.9625 23.9741 66.9033" stroke="#699153" stroke-linecap="round"/>
<path d="M75.6162 45.6393C76.2361 42.9194 77.8243 38.5387 79.7163 37.4795" stroke="#699153" stroke-linecap="round"/>
<path d="M541.542 79.9606C542.162 77.2407 543.75 72.86 545.642 71.8008" stroke="#699153" stroke-linecap="round"/>
</g>
<defs>
<clipPath id="clip0_3050_7230">
<rect width="1440" height="302" fill="white"/>
</clipPath>
</defs>
</svg>
